<svg width="352" height="110" viewBox="0 0 352 110" fill="none" xmlns="http://www.w3.org/2000/svg">
<path d="M85.8333 16.4971C85.7199 14.4547 85.3795 12.7527 85.0391 11.2777C84.6987 9.80259 84.1313 8.55447 83.4505 7.41981C82.7697 6.28515 82.0889 5.37742 81.2947 4.69662C80.6139 4.01582 79.8196 3.44849 78.9119 2.88116C76.3022 1.29264 73.2386 0.611843 69.7211 0.838775C66.2037 1.06571 62.4593 1.97344 58.7149 3.78889C58.8284 2.88116 59.0553 1.97344 59.1688 1.29264C59.1688 0.952242 59.1688 0.72531 58.9419 0.498377C58.7149 0.271445 58.488 0.0445133 58.2611 0.0445133C57.9207 -0.0689528 57.6937 0.0445133 57.4668 0.271445C57.2399 0.498377 57.1264 0.725309 57.0129 0.952242C56.786 2.0869 56.5591 3.44849 56.2187 5.15048C54.9706 5.83128 53.8359 6.62554 52.5878 7.41981C50.6588 8.7814 48.8434 10.3699 47.1414 12.0719C45.4394 13.7739 43.8509 15.7028 42.3758 17.9721C40.9008 20.128 39.7661 22.5108 38.8584 24.8936C37.9507 27.2764 37.3833 29.8861 37.1564 32.7227C36.816 35.5594 37.0429 38.396 37.7237 41.2327C37.8372 41.5731 37.9507 41.8 38.1776 41.9135C38.7449 42.0269 38.9718 42.0269 39.3122 42.0269C39.6526 41.9135 39.8796 41.8 39.993 41.5731C40.1065 41.3461 40.22 41.0058 40.22 40.7788C39.5392 38.0556 39.4257 35.4459 39.6526 32.8362C39.8796 30.2265 40.4469 27.8437 41.2412 25.5744C42.0354 23.3051 43.1701 21.1492 44.5317 19.1068C45.8933 17.0644 47.4818 15.249 48.9569 13.6604C50.5454 12.0719 52.2474 10.5969 54.0628 9.34873C54.6302 9.00833 55.1975 8.55447 55.7648 8.21407C55.084 11.9584 53.7224 18.6529 51.68 28.638C47.0279 51.4446 43.9644 67.2164 42.3758 76.1802C41.922 75.4994 41.5816 74.4782 41.3546 73.2301C41.3546 73.1166 41.3546 72.8897 41.2412 72.7762C41.1277 72.6628 41.0142 72.5493 40.9008 72.4358C40.7873 72.3224 40.6738 72.3224 40.5604 72.2089C40.4469 72.2089 40.3334 72.0954 40.1065 72.0954C39.8796 72.0954 39.7661 72.2089 39.5392 72.3224C39.3122 72.4358 39.1988 72.5493 39.1988 72.7762C39.0853 73.0032 39.0853 73.1166 39.0853 73.3436C39.3122 75.8398 40.3334 77.5418 41.8085 78.6765C41.2412 82.4209 40.7873 85.144 40.6738 87.073C40.5604 89.0019 40.5604 90.25 40.7873 90.7039C41.0142 91.1577 41.2412 91.4981 41.695 91.6116C41.8085 91.7251 42.0354 91.7251 42.1489 91.7251C42.7162 91.7251 43.1701 91.3847 43.624 90.7039C44.0778 90.0231 44.6451 88.8884 45.2125 87.2999C45.3259 87.073 45.3259 86.7326 45.2125 86.5056C45.099 86.1652 44.8721 86.0518 44.6451 85.9383C44.4182 85.8248 44.0778 85.8248 43.7374 85.9383C43.397 86.0518 43.2836 86.2787 43.1701 86.6191C43.0566 86.846 43.0566 86.9595 42.9432 87.1864C43.2836 85.2575 43.624 82.7613 44.0778 79.4707C44.5317 79.5842 44.9855 79.6977 45.5529 79.6977H45.6663C48.6165 79.6977 52.1339 78.2226 56.2187 75.386C60.3035 72.4358 64.2748 68.578 68.1326 63.8124C72.6713 58.0257 76.4156 51.6716 79.3658 44.7501C82.3159 37.8287 84.3583 30.6803 85.4929 23.3051C85.8333 20.8088 85.9468 18.5395 85.8333 16.4971ZM83.2236 22.8512C82.5428 27.3898 81.5216 31.7015 80.16 36.0132C78.7984 40.325 77.2099 44.0693 75.5079 47.4733C73.8059 50.8773 72.2174 53.6005 70.7423 55.9833C69.2673 58.2526 67.7922 60.4084 66.2037 62.3374C62.3458 67.2164 58.6015 71.0743 54.8571 73.5705C51.1127 76.0668 48.0491 77.4283 45.6663 77.4283H45.5529C45.2125 77.4283 44.7586 77.3149 44.4182 77.2014C45.8933 68.578 49.0703 52.3524 53.8359 28.7514C56.1052 17.7452 57.5803 10.3699 58.3745 6.39861C62.1189 4.58315 65.6364 3.44849 69.1538 3.1081C72.6713 2.7677 75.5079 3.33503 78.0042 4.69662C80.387 6.17168 81.9755 8.441 82.8832 11.5046C83.6775 14.5682 83.9044 18.426 83.2236 22.8512Z" fill="white"/>
<path d="M150.849 45.2039C150.509 45.0905 150.282 45.2039 150.055 45.3174C144.041 49.1752 139.162 53.0331 135.191 56.664C135.872 52.3523 136.553 47.8136 137.233 42.9346C137.347 42.3673 137.006 41.9134 136.439 41.7999C135.872 41.573 135.418 41.7999 135.078 42.2538C133.035 45.7713 131.106 48.7214 129.177 50.9907C128.27 52.0119 127.589 52.4658 127.248 52.2388C126.681 51.8984 126.341 50.8772 126.341 49.0618C126.341 47.2463 126.794 44.977 127.816 42.1403C127.929 41.7999 127.929 41.573 127.816 41.2326C127.702 41.0057 127.475 40.7788 127.248 40.6653C127.021 40.5518 126.681 40.5518 126.454 40.6653C126.114 40.7788 126 41.0057 125.887 41.2326C125.319 42.5942 124.866 43.9558 124.639 45.2039C117.263 53.8273 112.952 58.8199 111.93 60.1814C111.59 60.6353 111.25 61.0892 110.909 61.4296C110.455 60.2949 109.888 59.1602 109.094 58.0256C107.392 55.4159 106.03 53.26 105.122 51.4446C104.215 49.7426 103.874 48.154 103.874 46.9059C103.988 44.5231 105.009 42.7077 107.051 41.573C108.753 40.5518 110.228 40.4384 111.59 41.0057C111.817 41.1192 112.157 41.1192 112.384 41.0057C112.725 40.8922 112.838 40.7788 113.065 40.4384C113.179 40.2114 113.179 39.871 113.179 39.6441C113.065 39.3037 112.952 39.1902 112.611 38.9633C111.59 38.5094 110.569 38.2825 109.321 38.396C108.073 38.5094 106.938 38.8498 105.917 39.5306C104.669 40.3249 103.647 41.3461 102.853 42.4807C102.399 43.275 102.059 44.1827 101.832 45.2039L101.718 45.3174C97.5203 51.2176 93.7759 55.3024 90.3719 57.6852C88.5564 59.0468 87.0814 59.2737 85.9467 58.366C85.7198 58.2525 85.6063 58.0256 85.3794 57.7987C85.1525 57.5717 85.039 57.1179 84.8121 56.664C84.5851 56.0967 84.4717 55.4159 84.3582 54.7351C84.2447 54.0543 84.3582 52.9196 84.5851 51.6715C84.8121 50.4234 85.1525 49.0618 85.6063 47.4732C88.3295 45.0905 90.4854 42.9346 91.847 40.8922C93.322 38.8498 93.7759 37.2613 93.322 36.1266C93.0951 35.3324 92.5278 34.8785 91.62 34.992C90.3719 34.992 89.0103 36.0132 87.4218 38.0556C85.8333 40.098 84.5851 42.8211 83.4505 46.3386V46.4521C82.7697 48.6079 82.3158 50.5368 82.2023 52.2388C81.9754 53.9408 82.0889 55.3024 82.3158 56.3236C82.5427 57.3448 82.8831 58.1391 83.2235 58.7064C83.5639 59.2737 84.0178 59.7276 84.4717 60.068C85.2659 60.6353 86.1737 60.9757 87.3083 60.9757C88.6699 60.9757 90.145 60.5218 91.5066 59.5007C94.5701 57.3448 97.9741 53.7139 101.718 48.8348C101.945 49.7426 102.286 50.7638 102.74 51.8984C103.647 53.8273 105.122 56.2101 107.051 59.1602C107.959 60.5218 108.64 61.9969 109.094 63.472C102.513 72.4358 100.13 77.9956 102.172 79.9245C102.513 80.2649 103.08 80.4919 103.647 80.4919C104.555 80.4919 105.576 80.038 106.598 79.1303C107.732 78.2225 108.753 76.9744 109.548 75.4994C110.342 74.0243 111.023 72.3223 111.477 70.2799C111.93 68.2375 111.93 66.0817 111.363 63.9258C111.93 63.1316 112.611 62.3373 113.292 61.4296C114.313 60.1814 117.831 56.0967 123.958 48.9483V49.0618C124.071 51.558 124.752 53.1466 126 53.8273C127.589 54.7351 129.177 54.1677 130.879 52.1254C131.9 50.8772 133.035 49.4022 134.283 47.5867C133.716 51.558 133.149 55.3024 132.581 58.9333C127.362 64.3797 122.823 70.5069 119.192 77.5418C117.15 81.6265 115.561 85.8248 114.427 90.1365C113.292 94.4482 112.838 98.306 112.952 101.483C113.065 104.66 113.632 106.929 114.767 108.405C115.448 109.199 116.242 109.539 117.036 109.539C117.377 109.539 117.604 109.539 117.944 109.426C120.894 108.631 124.071 103.185 127.248 93.2001C129.972 84.6901 132.468 73.6839 134.737 60.1814C139.049 55.7563 144.609 51.4446 151.53 47.0194C151.757 46.9059 151.87 46.679 151.984 46.3386C152.097 45.9982 151.984 45.7713 151.87 45.5443C151.417 45.4309 151.19 45.3174 150.849 45.2039ZM91.0527 37.9421C90.5988 39.4172 89.3507 41.2326 87.0814 43.3885C88.443 40.5518 89.8046 38.7364 91.0527 37.9421ZM107.278 75.3859C106.598 76.4071 105.917 77.2014 105.236 77.7687C104.555 78.336 103.988 78.6764 103.647 78.6764C103.534 78.336 103.647 77.7687 103.874 77.0879C104.101 76.2936 104.669 75.0455 105.69 73.23C106.711 71.4146 107.959 69.3722 109.548 67.1029C109.775 70.053 108.98 72.8896 107.278 75.3859ZM124.866 92.8597C124.071 95.3559 123.277 97.5118 122.483 99.3272C121.689 101.143 121.008 102.618 120.44 103.639C119.873 104.66 119.419 105.454 118.852 106.022C118.285 106.703 117.944 107.043 117.717 107.156C117.49 107.27 117.263 107.383 117.036 107.497C116.809 107.61 116.469 107.497 116.242 107.156C115.675 106.476 115.334 105.341 115.107 103.525C114.881 101.71 114.881 99.6676 115.221 97.1714C115.448 94.6751 116.015 91.8385 117.036 88.548C118.058 85.2574 119.306 82.0804 121.008 78.9033C123.958 73.1166 127.589 67.8971 131.787 63.3585C129.631 75.3859 127.362 85.2574 124.866 92.8597Z" fill="white"/>
<path d="M188.52 48.2676C188.18 48.3811 187.953 48.608 187.839 48.835C187.726 49.0619 187.726 49.4023 187.839 49.6292C187.953 49.9696 188.18 50.0831 188.407 50.31C188.633 50.4235 188.974 50.4235 189.201 50.31C189.314 50.31 189.428 50.31 189.428 50.1966C189.087 51.2178 187.953 52.4659 186.364 53.9409C185.456 54.6217 184.435 55.416 183.301 56.0968C182.052 52.5793 181.372 48.7215 181.258 44.4098C184.208 40.8923 186.137 37.9422 187.158 35.3325C188.18 32.8363 188.293 30.9073 187.726 29.6592C187.158 28.5245 186.251 28.0707 185.003 28.1841C183.868 28.2976 182.847 29.0919 181.826 30.4535C180.804 31.8151 180.124 33.517 179.67 35.7864C179.216 38.2826 179.102 40.8923 179.102 43.6155C177.514 45.431 175.812 47.2464 173.883 49.1754C168.21 54.7352 166.281 58.593 168.323 60.7489C169.004 61.4297 170.139 61.8836 171.727 61.8836C173.316 61.8836 175.018 61.7701 176.833 61.2028C178.648 60.7489 180.464 59.9546 182.393 59.1604C183.301 61.0893 184.322 62.7913 185.456 64.2663C185.683 64.4933 186.024 64.7202 186.364 64.7202C186.591 64.7202 186.818 64.6067 187.045 64.4933C187.272 64.2663 187.499 64.0394 187.499 63.699C187.499 63.3586 187.385 63.1317 187.272 62.9048C186.251 61.5432 185.229 59.9546 184.435 58.1392C185.91 57.3449 187.158 56.4372 188.18 55.6429C189.768 54.2813 190.903 53.0332 191.584 51.7851C192.264 50.6504 192.378 49.6292 191.924 48.9484C190.903 47.9272 189.882 47.7003 188.52 48.2676ZM181.599 36.1268C181.939 34.4248 182.393 33.0632 183.074 32.042C183.754 31.0208 184.435 30.4535 185.003 30.34H185.116C185.229 30.34 185.343 30.4535 185.456 30.5669C185.683 30.6804 185.683 31.1343 185.683 31.7016C185.57 32.2689 185.456 32.9497 185.229 33.744C185.003 34.5382 184.549 35.446 183.868 36.6941C183.187 37.9422 182.279 39.3038 181.258 40.6654C181.258 39.0769 181.372 37.4884 181.599 36.1268ZM174.11 59.5008C171.84 59.9546 170.365 59.8412 169.685 59.1604C169.571 58.9334 169.571 58.82 169.458 58.593C169.458 58.3661 169.458 58.0257 169.685 57.5719C169.912 57.118 170.139 56.5507 170.592 55.9833C170.933 55.416 171.5 54.6217 172.294 53.714C173.089 52.8063 173.996 51.8985 175.018 50.8774C176.379 49.5158 177.741 48.1542 178.875 46.7926C179.216 50.537 179.897 54.0544 181.031 57.2315C178.762 58.3661 176.379 59.1604 174.11 59.5008Z" fill="white"/>
<path d="M258.642 45.7713C259.437 42.3673 260.571 37.6018 262.046 31.5881C263.975 23.8724 265.11 18.8799 265.564 16.724C266.698 11.7315 267.379 7.98712 267.606 5.49086C267.72 4.01581 267.72 2.99461 267.606 2.08688C267.379 1.29262 267.039 0.725291 266.471 0.498359C266.018 0.384893 265.564 0.384893 265.11 0.611825C264.656 0.838757 263.975 1.40609 263.294 2.42728C262.614 3.33501 261.819 4.46967 261.025 5.83126C260.231 7.07939 259.096 9.00831 257.735 11.5046C256.373 14.0008 255.011 16.6105 253.536 19.4472C252.061 22.1704 250.246 25.8013 248.09 30.3399C244.686 37.0344 242.076 42.0269 240.374 45.3174C229.822 45.0905 224.035 44.8636 223.241 44.6366C223.014 44.6366 222.673 44.6366 222.447 44.8636C222.22 44.977 221.993 45.204 221.993 45.5444C221.879 45.8848 221.993 46.1117 222.22 46.3386C222.447 46.5656 222.674 46.7925 222.9 46.7925C223.808 47.0194 229.255 47.2464 239.24 47.4733C233.793 57.9122 229.481 65.174 226.418 69.3722C224.489 71.982 222.674 72.7762 221.085 71.8685C220.404 71.4146 219.723 70.7338 219.043 69.7126C218.362 68.6914 217.794 67.4433 217.341 65.9683C216.887 64.4932 216.433 62.9047 216.206 61.0892C215.979 59.2738 215.752 57.4583 215.752 55.6429C215.752 53.8274 215.979 51.8985 216.319 49.9695C216.66 48.0406 217.227 46.3386 217.908 44.7501C218.816 42.7077 219.95 41.1192 221.312 39.8711C222.673 38.6229 224.149 37.9421 225.624 37.6017C227.212 37.2614 228.687 37.1479 230.049 37.2614C231.524 37.3748 232.885 37.7152 234.474 38.1691C234.814 38.2825 235.041 38.2825 235.382 38.0556C235.609 37.9421 235.836 37.7152 235.949 37.3748C236.062 37.0344 236.062 36.8075 235.836 36.5806C235.722 36.3536 235.495 36.1267 235.155 36.0132C230.616 34.5382 226.758 34.5382 223.354 35.8998C220.064 37.2614 217.454 39.8711 215.752 43.8424C214.39 47.0194 213.596 50.7638 213.483 55.0755C213.369 59.3872 213.937 63.2451 215.071 66.7625C216.206 70.28 217.794 72.6628 219.837 73.7974C220.291 74.0244 220.745 74.2513 221.312 74.3648C221.766 74.4782 222.447 74.4782 223.127 74.3648C223.808 74.2513 224.602 73.9109 225.51 73.3436C226.304 72.7762 227.212 71.8685 228.006 70.7338C231.183 66.3087 235.722 58.593 241.509 47.5868C242.417 47.5868 243.324 47.5868 244.119 47.7002C249.338 47.8137 253.196 47.9272 255.806 48.0406C253.99 55.5294 252.629 61.9969 251.494 67.2164C250.359 72.4358 249.451 76.6341 248.884 79.8111C248.317 82.9882 247.976 85.4844 247.863 87.1864C247.75 89.0019 247.749 90.1365 247.976 90.8173C248.203 91.4981 248.43 91.8385 248.884 92.0655C249.111 92.1789 249.225 92.1789 249.451 92.1789C250.246 92.1789 251.267 91.2712 252.288 89.3423C252.402 89.1153 252.515 88.7749 252.402 88.548C252.288 88.2076 252.175 87.9807 251.948 87.8672C251.721 87.7537 251.38 87.6403 251.153 87.7537C250.813 87.8672 250.586 87.9807 250.473 88.3211C250.246 88.6615 250.132 88.8884 249.905 89.2288C249.905 86.1652 251.04 79.1303 253.423 68.2376C254.557 62.7912 256.146 56.0967 257.961 48.2676C264.769 48.4945 268.627 48.7214 269.422 48.8349C269.535 48.9484 269.762 48.9484 269.875 48.9484C270.216 48.9484 270.556 48.8349 270.783 48.4945C270.897 48.2676 271.01 48.0406 271.01 47.7002C271.01 47.3598 270.783 47.1329 270.556 46.906C270.102 46.2252 266.131 45.9982 258.642 45.7713ZM256.373 45.6578C253.309 45.5444 249.225 45.4309 244.232 45.3174C244.005 45.3174 243.778 45.3174 243.438 45.3174C243.097 45.3174 242.87 45.3174 242.757 45.3174C244.346 42.1404 246.728 37.4883 249.905 31.2477C251.948 27.2763 253.423 24.3262 254.557 22.0569C255.692 19.9011 257.054 17.1779 258.756 14.1143C260.458 10.9372 261.819 8.44098 262.954 6.73899C264.089 4.92353 264.883 3.78887 265.564 3.10808C265.677 5.037 264.996 9.34871 263.521 16.1567C263.067 18.3125 261.819 23.305 259.89 31.0207C258.642 36.3536 257.394 41.2327 256.373 45.6578Z" fill="white"/>
<path d="M300.057 40.6654C300.511 40.6654 300.965 40.552 301.419 40.325C302.213 39.9846 302.44 39.4173 302.326 38.623C302.1 37.8288 301.532 37.6018 300.625 37.8288C300.057 38.0557 299.49 38.5096 299.149 39.1904C298.582 40.0981 298.923 40.552 300.057 40.6654Z" fill="white"/>
<path d="M314.127 45.9982C314.014 45.6578 313.9 45.4309 313.673 45.3174C313.446 45.204 313.106 45.0905 312.879 45.204C312.538 45.3174 312.312 45.4309 312.198 45.6578C310.269 48.7214 308 51.5581 305.39 53.9408C302.78 56.3236 300.965 57.3448 299.944 56.891C299.83 56.891 299.83 56.7775 299.717 56.664C299.603 56.5506 299.49 56.3236 299.376 55.7563C299.263 55.3024 299.15 54.6216 299.15 53.9408C299.15 53.26 299.263 52.1254 299.49 50.7638C299.717 49.4022 300.057 47.7002 300.511 45.8848C300.625 45.6578 300.511 45.3174 300.398 45.0905C300.284 44.8636 300.057 44.6366 299.717 44.5232C299.376 44.4097 299.15 44.5232 298.923 44.6366C298.696 44.7501 298.469 44.977 298.355 45.3174C298.355 45.4309 298.355 45.4309 298.355 45.5444C298.242 45.6578 298.242 45.6578 298.128 45.7713C296.88 48.381 295.632 50.8773 294.27 53.26C292.909 55.6428 291.774 57.5718 290.64 59.1603C289.505 60.7488 288.484 62.1104 287.576 63.3585C286.668 64.4932 285.874 65.4009 285.193 65.8548C284.512 66.3086 284.059 66.649 283.832 66.649C283.832 66.5356 283.718 66.4221 283.605 66.3086C282.81 63.8124 284.285 56.5506 288.143 44.6366C288.484 43.502 288.484 42.7077 287.803 42.2538C287.576 42.1404 287.349 42.0269 287.122 41.9134C286.895 41.9134 286.668 41.9134 286.328 42.1404C285.987 42.2538 285.761 42.4808 285.42 42.5942C285.193 42.7077 284.739 42.9346 284.285 43.275C281.562 45.0905 279.633 45.8848 278.385 45.7713C280.201 42.5942 281.449 39.9845 282.243 38.0556C283.037 36.1267 283.378 34.7651 283.264 34.0843C283.151 33.4035 282.81 32.8362 282.357 32.6092C281.449 32.0419 280.428 32.2688 279.179 33.29C277.931 34.3112 276.91 35.5593 276.002 36.9209C274.527 39.0768 273.847 41.1192 273.96 42.9346C273.96 44.7501 274.754 46.2251 276.229 47.2463C276.91 47.7002 277.704 48.0406 278.612 48.0406C279.406 48.0406 280.314 47.9271 281.335 47.4733C282.243 47.1329 283.037 46.7925 283.605 46.4521C284.172 46.1117 284.853 45.6578 285.761 45.0905H285.874C285.874 45.0905 285.874 45.0905 285.987 45.0905C283.718 52.2389 282.243 57.6852 281.676 61.5431C281.108 65.7413 281.562 68.1241 283.151 68.6914C283.378 68.8049 283.605 68.9184 283.945 68.9184C284.966 68.9184 286.328 68.1241 287.916 66.649C289.505 65.174 290.98 63.1316 292.568 60.7488C294.157 58.366 295.519 55.9832 296.88 53.6004C296.994 53.3735 297.107 53.1466 297.334 52.8062C297.107 56.2102 297.901 58.1391 299.49 58.9333C299.83 59.0468 300.284 59.1603 300.738 59.1603C302.1 59.1603 303.688 58.4795 305.504 57.0044C307.433 55.5294 309.135 53.9408 310.61 52.1254C312.085 50.3099 313.446 48.4945 314.467 46.7925C314.127 46.5655 314.24 46.3386 314.127 45.9982ZM276.116 41.4596C276.343 40.4384 276.797 39.4172 277.364 38.5095C277.931 37.6017 278.612 36.694 279.179 36.1267C279.747 35.5593 280.314 35.1055 280.768 34.7651C280.541 36.4671 279.066 39.7576 276.229 44.6366C275.889 43.8424 275.775 42.8212 276.116 41.4596Z" fill="white"/>
</svg>
