<svg width="300" height="229" viewBox="0 0 300 229" fill="none" xmlns="http://www.w3.org/2000/svg">
<path d="M176.741 85.0946L181.489 79.6666C181.743 79.2429 181.489 78.3955 180.811 77.6328C180.049 76.9549 179.287 76.6159 178.944 77.0396L174.201 82.4676C173.862 82.9136 174.201 83.7387 174.878 84.5014C175.556 85.1883 176.403 85.5183 176.741 85.0946Z" fill="#FFFEF1"/>
<path d="M163.698 104.501C165.553 107.743 170.117 105.366 174.156 102.271L170.728 107.806C170.474 108.252 170.813 109.144 171.575 109.844C172.253 110.522 173.015 110.776 173.269 110.437C173.354 110.437 176.389 106.869 180.468 102.806C181.315 105.602 183.352 108.488 188.519 107.212C192.245 106.365 195.718 100.857 197.073 96.4501C197.431 95.3276 197.603 94.1539 197.581 92.9757C197.596 92.2256 197.435 91.4824 197.111 90.8056C196.788 90.1288 196.31 89.537 195.718 89.0775L195.633 88.9928C194.617 88.2301 193.346 88.1454 191.822 88.8233C189.111 90.0097 185.554 92.9757 182.077 96.1959L201.04 65.5147C201.294 65.091 200.871 64.1767 200.193 63.4809C199.431 62.803 198.669 62.5487 198.41 62.9725L177.727 96.4501C174.762 99.1262 169.351 103.586 166.899 103.23C166.052 102.784 165.967 101.445 167.153 99.0771C169.016 95.509 172.056 91.874 173.929 90.2639C174.352 89.925 174.098 89.0775 173.421 88.3149C172.743 87.5522 171.896 87.2132 171.473 87.5522C169.525 89.1623 166.391 92.9757 164.527 96.6196C163.105 99.5009 162.513 102.382 163.698 104.501ZM195.379 91.1203V91.205C195.464 91.2898 195.379 91.205 195.209 91.205C195.252 91.1534 195.313 91.1199 195.379 91.1114V91.1203ZM194.108 91.6287C194.363 91.544 194.617 91.3745 194.871 91.2898C194.779 92.269 194.58 93.2352 194.278 94.171C193.092 98.3234 189.789 103.493 186.486 104.34C182.92 105.188 182.67 101.544 182.67 100.611C186.655 96.7846 190.975 93.0604 194.108 91.6198V91.6287Z" fill="#FFFEF1"/>
<path d="M199.257 132.113C199.622 133.187 200.196 134.177 200.945 135.029C201.694 135.88 202.603 136.574 203.621 137.073C205.183 137.865 206.935 138.21 208.681 138.068C212.247 137.867 216.517 135.985 220.27 132.211C227.514 125.164 225.927 120.303 223.944 117.725C230.585 115.049 237.53 112.373 237.53 113.158C237.63 113.65 237.831 114.117 238.121 114.527C238.411 114.937 238.784 115.282 239.215 115.539C240.107 116.137 240.802 115.936 240.802 115.241C240.406 106.213 210.651 118.715 209.064 119.411H208.966C208.471 119.71 208.569 120.602 209.265 121.494C209.955 122.488 210.95 123.081 211.542 122.783L222.357 118.916C223.15 120.004 223.743 122.983 217.395 129.134C213.829 132.608 209.759 134.397 206.487 134.691C205.097 134.691 203.906 134.593 203.113 134.098C202.719 133.868 202.407 133.52 202.221 133.103C201.624 131.417 201.727 129.036 203.015 125.86C207.776 113.457 222.851 109.487 223.966 109.188C224.26 109.188 224.461 108.889 224.461 108.492C224.341 107.995 224.121 107.528 223.814 107.118C223.507 106.709 223.121 106.366 222.678 106.111C222.678 106.013 216.829 102.641 219.802 96.187C221.389 92.717 224.96 89.8358 228.718 88.3505C230.112 87.7935 231.584 87.4579 233.082 87.3559C234.156 87.2164 235.249 87.353 236.256 87.7529C236.488 87.8551 236.696 88.0053 236.867 88.1936C237.037 88.3819 237.166 88.6041 237.245 88.8456C239.826 95.3931 230.799 101.151 230.799 101.151C230.403 101.45 230.501 102.244 231.098 103.038C231.691 104.028 232.783 104.626 233.376 104.523L240.223 102.935C240.816 102.739 240.718 101.847 240.12 100.95C239.716 100.362 239.17 99.8851 238.533 99.5633C240.419 97.0834 241.707 93.609 240.223 89.751C239.808 88.6314 239.173 87.6064 238.356 86.7368C237.538 85.8673 236.554 85.1708 235.462 84.6888C234.026 84.0724 232.467 83.7961 230.906 83.8815C229.306 84.0089 227.734 84.3773 226.244 84.9742C222.178 86.562 218.412 89.6395 216.722 93.3102C214.048 99.1663 217.021 103.729 219.7 106.311C215.242 107.801 204.027 112.462 199.863 123.082C198.477 126.752 198.366 129.83 199.257 132.113Z" fill="#FFFEF1"/>
<path d="M176.683 153.812L171.936 159.226C171.597 159.672 171.936 160.498 172.614 161.26C173.291 161.938 174.138 162.282 174.481 161.858L179.224 156.43C179.478 155.984 179.224 155.159 178.547 154.396C177.785 153.727 177.022 153.388 176.683 153.812Z" fill="#FFFEF1"/>
<path d="M240.383 143.558C241.721 141.524 242.416 140.436 242.416 140.436C242.67 139.927 242.247 139.098 241.569 138.402C240.807 137.639 240.045 137.47 239.786 137.894L238.003 140.605C233.724 147.125 229.056 153.381 224.024 159.338C221.085 162.878 217.947 166.246 214.623 169.427C213.776 168.156 212.759 166.461 209.456 166.545C206.193 166.389 202.859 170.292 201.022 173.102C198.192 175.332 192.865 179.19 190.903 177.901C190.903 177.901 192.174 175.443 193.275 173.24C193.835 172.175 194.316 171.071 194.715 169.935C195.308 167.817 194.884 166.206 192.343 165.444H192.174C190.311 164.935 185.314 168.664 180.74 172.477L182.857 168.664C183.111 168.218 182.773 167.326 182.01 166.63C181.333 165.952 180.486 165.783 180.227 166.206L177.205 171.612C175.565 173.231 167.741 180.474 164.639 180.019C163.792 179.573 163.707 178.235 164.893 175.867C166.756 172.299 169.796 168.664 171.669 167.054C172.092 166.715 171.838 165.867 171.16 165.105C170.483 164.342 169.636 164.003 169.212 164.342C167.65 165.736 166.248 167.299 165.031 169.003C164.63 168.816 164.278 168.802 164.14 169.003C162.869 170.444 158.79 173.909 154.056 176.376C150.33 178.24 144.655 180.104 140.759 177.901C141.691 176.037 142.707 174.172 143.639 172.223C154.819 149.592 163.462 122.979 162.022 110.517C161.51 106.619 160.239 104.246 158.456 103.06C158.354 102.998 158.251 102.94 158.144 102.886C159.524 100.922 160.595 98.7573 161.318 96.468C161.676 95.3454 161.848 94.1717 161.826 92.9935C161.841 92.2434 161.68 91.5003 161.356 90.8235C161.033 90.1466 160.556 89.5549 159.963 89.0954L159.878 89.0107C158.862 88.248 157.591 88.1632 156.067 88.8412C153.357 90.0276 149.795 92.9935 146.322 96.2137L165.299 65.5326C165.553 65.1089 165.129 64.1945 164.452 63.4988C163.689 62.8208 162.927 62.5666 162.669 62.9903L142.81 95.1344C139.654 97.6767 133.284 102.583 133.034 101.026C132.526 98.6534 133.542 96.4501 133.712 96.0264C133.966 95.6027 133.627 94.84 133.034 94.1621C132.272 93.3994 131.51 93.1452 131.171 93.4841C131.171 93.4841 123.459 102.467 120.495 103.296C121.426 99.3983 123.205 96.3476 126.343 93.8053C127.868 92.5342 132.018 90.5851 133.712 92.1952C133.896 92.5863 134.155 92.9372 134.475 93.228C134.795 93.5188 135.168 93.7438 135.575 93.89C136.253 94.0595 136.507 93.551 136.168 92.7036C134.728 87.7975 127.783 87.9581 123.967 91.0935C121.75 92.9488 119.959 95.2613 118.716 97.8729C118.223 98.8849 117.908 99.9742 117.785 101.093C117.7 101.726 117.747 102.369 117.921 102.983C118.096 103.597 118.396 104.168 118.801 104.661C119.267 105.202 119.845 105.636 120.495 105.932C122.358 106.78 125.496 104.148 128.545 101.272C128.461 105.424 131.425 106.624 135.321 104.576C136.322 104.024 137.271 103.382 138.156 102.659L134.982 107.797C134.728 108.243 135.067 109.135 135.829 109.835C136.507 110.513 137.269 110.767 137.523 110.428C137.608 110.428 140.643 106.86 144.722 102.797C145.426 105.125 146.951 107.498 150.419 107.507C149.217 109.226 148.114 111.013 147.116 112.859C138.985 127.774 130.426 154.98 133.391 168.459C134.238 171.933 135.423 174.645 136.957 176.679L137.211 177.018C133.732 183.578 129.767 189.868 125.349 195.835C120.098 202.614 115.097 207.021 110.951 207.529C110.005 207.685 109.033 207.568 108.152 207.19C99.5973 202.953 117.067 157.607 117.134 157.268C117.303 156.76 116.964 155.93 116.287 155.319C115.609 154.557 114.762 154.387 114.504 154.811C114.419 154.896 94.9346 186 89.9376 182.102C88.6003 181.085 91.3774 172.357 94.3418 163.035C98.0684 151.354 102.134 138.71 96.7311 133.893C92.9198 130.503 87.7534 129.656 83.2645 131.774C82.4608 132.169 81.6914 132.63 80.9644 133.152C82.373 130.753 83.6791 128.349 84.847 125.945L105.352 89.4165C112.484 89.0776 116.367 88.8233 116.367 88.8233C116.96 88.7386 117.045 88.0607 116.536 87.2132C116.028 86.4506 115.097 85.7726 114.588 85.8752C114.504 85.8752 111.963 86.0447 107.131 86.2989L132.29 41.3766C132.554 41.8551 132.897 42.285 133.306 42.6477C134.068 43.2409 134.831 43.2409 134.915 42.6477L136.275 34.2582C136.355 33.665 135.762 32.7328 135 32.2244C134.322 31.6312 133.663 31.6312 133.475 32.0549L102.972 86.5264C100.346 86.6111 97.3819 86.7806 93.9941 86.9724C93.5754 82.2704 92.2525 77.6936 90.0981 73.4939C87.7844 69.0925 84.477 65.2915 80.4384 62.3927L91.6226 44.8465C91.8767 44.4228 91.4532 43.5085 90.7757 42.8127C90.0134 42.1348 89.2511 41.8806 88.9926 42.3043L77.4696 60.4436C70.6092 56.5454 61.6315 54.5072 50.6167 54.8461C31.7251 55.5241 18.0045 61.7147 11.8351 68.6725C9.91906 70.6484 8.6489 73.1606 8.19319 75.8756C7.84995 78.5873 8.6969 81.2991 10.9034 83.7611C14.7994 88.1677 23.1843 91.3032 36.5706 91.2184C44.2779 91.2184 51.477 91.1337 58.2526 90.9642L49.1055 105.455C48.8514 105.901 49.1902 106.726 49.9525 107.493C50.63 108.171 51.477 108.336 51.7355 108.002L62.4963 90.8794C73.6761 90.71 83.4161 90.371 91.471 90.032C91.3863 99.9469 88.3507 111.392 82.2348 123.51C80.3715 126.815 78.5929 130.12 76.7296 133.425C76.4755 133.871 76.899 134.7 77.5765 135.463C77.7236 135.574 77.8707 135.672 78.0223 135.762C74.6066 139.376 72.1366 143.78 70.8321 148.58C70.6627 149.088 71.1709 150.021 71.9331 150.614C72.6954 151.292 73.373 151.292 73.5424 150.783C75.1516 144.682 80.5721 138.326 86.2511 135.619C89.2155 134.178 93.3834 133.246 96.058 135.704C98.9376 138.25 95.1263 149.945 91.6538 160.792C88.3507 171.22 85.2169 180.862 89.6211 184.27C94.11 187.664 103.596 176.558 110.207 167.576C105.544 182.406 100.039 205.545 108.762 209.782C110.009 210.447 111.429 210.713 112.832 210.544C117.321 210.036 122.487 205.46 127.908 198.502C131.889 193.333 135.958 186.808 139.854 179.6C144.936 183.329 151.288 182.566 156.455 180.046C158.046 179.193 159.556 178.196 160.966 177.067C160.663 178.628 160.756 180.082 161.412 181.286C163.609 185.122 169.596 181.094 174.022 177.272L172.591 179.828C172.337 180.251 172.761 181.099 173.438 181.861C174.116 182.455 174.878 182.709 175.132 182.37C175.471 182.031 186.722 171.269 191.568 168.726C191.292 169.42 190.981 170.099 190.636 170.76C189.027 174.065 187.163 177.794 190.975 180.251C193.07 181.625 196.257 179.868 199.025 177.651C198.983 177.866 198.954 178.084 198.936 178.302C198.682 183.133 203.514 182.709 206.394 180.929C209.158 179.075 211.797 177.04 214.293 174.837L214.377 174.667C214.97 175.006 215.478 174.922 215.563 174.498C215.616 174.161 215.644 173.821 215.648 173.481C217.257 172.04 218.866 170.43 220.475 168.735C209.634 186.616 198.366 205.942 199.382 208.314C199.522 208.729 199.756 209.105 200.065 209.415C200.375 209.724 200.751 209.958 201.165 210.098C201.842 210.268 202.181 209.844 201.842 208.997C200.652 206.191 232.083 156.608 240.383 143.558ZM60.0981 87.9759C52.3863 88.1454 43.9168 88.2301 34.8544 88.3149C22.3997 88.3149 15.2006 86.0268 12.2363 82.6371C11.6935 81.9846 11.2989 81.2219 11.0795 80.4018C10.8602 79.5817 10.8214 78.7237 10.9658 77.8871C11.2199 75.7686 12.4057 73.4805 14.3537 71.2772C20.367 64.4978 33.8381 58.4811 52.3863 57.8032C62.3002 57.4642 70.2615 59.0743 76.3596 62.2098L60.0981 87.9759ZM64.3329 87.8912L79.4086 63.9894C82.8978 66.3337 85.7512 69.5075 87.7132 73.2263C89.8306 77.2092 91.0164 81.87 91.3551 87.0527C83.8975 87.298 74.8351 87.6369 64.3329 87.8912ZM94.1501 89.925C96.6909 89.8402 99.0535 89.7555 101.18 89.6707L92.6256 104.924C93.7733 100.01 94.2857 94.9695 94.1501 89.925ZM159.633 91.1114V91.1961C159.718 91.2808 159.633 91.1961 159.464 91.1961C159.508 91.1478 159.568 91.1176 159.633 91.1114ZM146.924 100.603C150.905 96.7891 155.229 93.0604 158.363 91.6198C158.617 91.5351 158.871 91.3656 159.125 91.2808C159.033 92.2601 158.834 93.2263 158.532 94.1621C157.346 98.3145 154.043 103.484 150.736 104.331C147.178 105.179 146.924 101.535 146.924 100.603ZM138.223 175.256C137.233 173.551 136.545 171.688 136.19 169.748C133.221 156.778 141.695 129.995 149.741 115.334C151.689 111.86 153.553 108.974 155.247 107.279C156.771 105.754 157.872 104.991 158.465 105.415C158.719 105.5 158.973 106.601 159.227 108.889C160.667 121.012 152.095 147.371 140.951 169.748C140.086 171.612 139.155 173.499 138.223 175.256ZM211.837 172.134C209.416 174.359 206.809 176.372 204.045 178.151C203.324 178.612 202.58 179.037 201.816 179.422C202.114 178.32 202.572 177.268 203.175 176.3C204.615 173.927 208.003 169.775 211.052 169.944C211.44 169.917 211.825 170.03 212.136 170.264C212.447 170.497 212.663 170.835 212.746 171.215L211.837 172.134Z" fill="#FFFEF1"/>
<path d="M237.593 159.226C237.254 159.672 237.593 160.497 238.27 161.26C238.948 161.938 239.795 162.281 240.134 161.858L244.877 156.43C245.131 155.984 244.877 155.159 244.199 154.396C243.437 153.718 242.675 153.379 242.336 153.803L237.593 159.226Z" fill="#FFFEF1"/>
<path d="M243.178 171.269C243.178 171.353 233.777 180.506 230.305 179.997C229.458 179.551 229.369 178.213 230.559 175.845C232.422 172.277 235.462 168.642 237.334 167.032C237.78 166.693 237.504 165.845 236.826 165.082C236.149 164.32 235.302 163.981 234.878 164.32C232.93 165.93 229.792 169.743 227.929 173.387C226.489 176.268 225.896 179.15 227.082 181.268C230.728 187.628 244.788 172.37 244.872 172.37C245.211 172.031 245.55 171.777 244.788 171.032C244.11 170.256 243.517 170.934 243.178 171.269Z" fill="#FFFEF1"/>
<path d="M210.687 49.2308L212.831 58.7933L213.637 58.6149L211.498 49.0479L214.966 48.2719L214.801 47.5359L207.067 49.2709L207.232 50.0069L210.687 49.2308Z" fill="#FFFEF1"/>
<path d="M221.202 57.4509L221.166 52.2504L227.492 52.2058L227.527 57.4063L228.343 57.3973L228.267 46.8492L227.452 46.8536L227.487 51.452L221.158 51.4966L221.126 46.8982L220.311 46.9071L220.391 57.4553L221.202 57.4509Z" fill="#FFFEF1"/>
<path d="M239.817 58.6996L234.062 57.4508L234.999 53.12L240.259 54.2618L240.419 53.5214L235.159 52.3797L235.979 48.6108L241.502 49.8106L241.663 49.0747L235.342 47.701L233.104 58.0128L239.541 59.4133L239.817 58.6996Z" fill="#FFFEF1"/>
<path d="M263.893 60.0198C261.927 61.7504 257.438 65.5013 256.355 66.5762C256.654 65.8002 258.584 59.6719 259.373 57.1252L258.584 56.6435C256.462 58.5926 251.857 62.5755 251.166 63.2936C251.612 62.125 253.426 56.3492 254.193 53.8337L253.484 53.3876L250.261 63.8511L251.037 64.3462C253.083 62.5621 257.416 58.7844 258.383 57.7764C258.049 58.6372 256.154 64.6628 255.388 67.1427L256.177 67.6467L264.575 60.5105L263.893 60.0198Z" fill="#FFFEF1"/>
<path d="M265.845 76.7943L266.478 76.3662L262.444 72.0666L265.676 69.0337L269.358 72.9586L269.906 72.4413L266.224 68.5163L269.037 65.876L272.906 69.9971L273.455 69.4797L269.028 64.7654L261.339 71.9863L265.845 76.7943Z" fill="#FFFEF1"/>
<path d="M270.004 82.9003C271.516 85.4381 274.422 85.9822 277.137 84.3677C279.851 82.7531 280.56 79.9878 279.076 77.5035L277.266 74.484L268.217 79.9075L270.004 82.9003ZM278.354 77.7711C279.851 80.2822 278.634 82.4498 276.642 83.6407C274.413 84.9787 272.015 84.8048 270.588 82.4097L269.282 80.2197L277.048 75.5857L278.354 77.7711Z" fill="#FFFEF1"/>
<path d="M275.144 94.1398C276.036 96.9586 278.71 98.1539 281.737 97.2128C284.764 96.2717 286.079 93.7428 285.209 90.9686L284.157 87.6325L274.097 90.8036L275.144 94.1398ZM284.452 91.0801C285.343 93.8677 283.645 95.6964 281.429 96.3966C278.942 97.1771 276.664 96.459 275.826 93.7963L275.059 91.3656L283.685 88.6494L284.452 91.0801Z" fill="#FFFEF1"/>
<path d="M287.636 101.555L277.179 102.964L277.288 103.773L287.745 102.364L287.636 101.555Z" fill="#FFFEF1"/>
<path d="M288.321 110.326L288.379 109.117L277.837 108.671L277.801 109.5L282.704 109.719C284.617 109.804 286.15 109.888 287.541 109.871C286.351 110.571 280.048 114.215 277.538 115.669L277.489 116.784L288.027 117.23L288.067 116.4L283.293 116.191C281.577 116.115 280.025 116.03 278.501 116.052C279.664 115.446 285.736 111.851 288.321 110.326Z" fill="#FFFEF1"/>
<path d="M281.857 122.172C278.978 121.342 276.33 122.194 275.492 125.102C274.881 127.221 275.692 128.318 276.281 128.88C275.746 128.698 275.193 128.576 274.632 128.514L274.444 129.165L279.794 130.708L280.957 126.694L280.235 126.485L279.29 129.758L279.174 129.727C276.945 129.076 275.483 127.89 276.214 125.356C276.945 122.823 279.334 122.368 281.67 123.037C284.233 123.782 285.865 125.508 285.134 128.041C284.621 129.825 283.48 130.561 281.92 130.583L281.697 131.364C283.654 131.587 285.219 130.472 285.847 128.282C286.698 125.298 284.884 123.046 281.857 122.172Z" fill="#FFFEF1"/>
<path d="M274.591 140.904C272.144 139.12 269.189 139.12 267.459 141.502C265.542 144.133 266.755 146.921 269.077 148.638C271.565 150.453 274.458 150.346 276.165 148.005C277.988 145.453 277.003 142.661 274.591 140.904ZM275.55 147.519C274.048 149.579 271.538 149.352 269.559 147.907C267.579 146.461 266.412 144.187 268.021 141.984C269.514 139.936 272.153 140.199 274.114 141.636C276.076 143.072 277.15 145.329 275.55 147.519Z" fill="#FFFEF1"/>
<path d="M261.232 148.848L264.584 152.643L260.666 156.104L261.165 156.671L265.083 153.21L267.718 156.193L263.536 159.882L264.036 160.448L268.823 156.216L261.842 148.308L261.232 148.848Z" fill="#FFFEF1"/>
</svg>
