<svg width="32" height="32" viewBox="0 0 32 32" fill="none" xmlns="http://www.w3.org/2000/svg">
<path d="M6.66663 24V29.0213L8.68663 27.8093L15.036 24H21.3333C22.804 24 24 22.804 24 21.3333V10.6667C24 9.196 22.804 8 21.3333 8H5.33329C3.86263 8 2.66663 9.196 2.66663 10.6667V21.3333C2.66663 22.804 3.86263 24 5.33329 24H6.66663ZM5.33329 10.6667H21.3333V21.3333H14.2973L9.33329 24.312V21.3333H5.33329V10.6667Z" fill="#FFFEF1" fill-opacity="0.5"/>
<path d="M26.6667 2.66666H25.3333H22.664H10.6667C9.196 2.66666 8 3.86266 8 5.33332H22.1147H24C25.4707 5.33332 26.6667 6.52932 26.6667 7.99999V9.88532V16V18.6667C28.1373 18.6667 29.3333 17.4707 29.3333 16V9.33332V6.66666V5.33332C29.3333 3.86266 28.1373 2.66666 26.6667 2.66666Z" fill="#FFFEF1" fill-opacity="0.5"/>
</svg>
