<svg width="24" height="24" viewBox="0 0 24 24" fill="none" xmlns="http://www.w3.org/2000/svg">
<path d="M15.6964 6.08489L14.6452 4.21307C14.509 3.9705 14.2526 3.8205 13.9744 3.8205H10C9.72207 3.8205 9.46567 3.9705 9.32926 4.21307L8.27799 6.08489C8.10648 6.39028 8.16287 6.77259 8.41468 7.0154L11.2767 9.77489C11.4806 9.97846 11.7424 10.08 12.0029 10.08C12.2608 10.08 12.5177 9.98025 12.7159 9.78206L15.5621 7.01282C15.8118 6.7695 15.8669 6.38896 15.6964 6.08489ZM11.9985 8.33386L9.91028 6.32025L10.4503 5.35921H13.5244L14.0654 6.32282L11.9985 8.33386Z" fill="#253E54"/>
<path d="M12 0C11.5751 0 11.2308 0.344344 11.2308 0.769219V2.41027C11.2308 2.83514 11.5751 3.17948 12 3.17948C12.4249 3.17948 12.7692 2.83514 12.7692 2.41027V0.769219C12.7692 0.344344 12.4249 0 12 0Z" fill="#253E54"/>
<path d="M17.331 1.58254C17.0021 1.31484 16.5172 1.36458 16.249 1.69434L15.249 2.92509C14.9813 3.25486 15.0313 3.73922 15.361 4.00715C15.5035 4.12303 15.6751 4.17947 15.8456 4.17947C16.0692 4.17947 16.291 4.08229 16.443 3.89536L17.443 2.66461C17.7108 2.33489 17.6607 1.85053 17.331 1.58254Z" fill="#253E54"/>
<path d="M8.75106 2.92538L7.75107 1.69463C7.48337 1.36486 6.99901 1.31461 6.66901 1.5826C6.33901 1.85054 6.28899 2.3349 6.55698 2.66466L7.55696 3.89541C7.70903 4.08258 7.93056 4.17952 8.15439 4.17952C8.32464 4.17952 8.4962 4.12313 8.63903 4.00749C8.96898 3.7395 9.019 3.25515 8.75106 2.92538Z" fill="#253E54"/>
<path d="M12 8.71796C7.78668 8.71796 4.35895 12.1459 4.35895 16.359C4.35895 20.5721 7.78668 24 12 24C16.2131 24 19.641 20.5723 19.641 16.359C19.641 12.1456 16.2133 8.71796 12 8.71796ZM12 22.4616C8.63512 22.4616 5.89743 19.7239 5.89743 16.359C5.89743 12.9941 8.63512 10.2564 12 10.2564C15.3649 10.2564 18.1026 12.9941 18.1026 16.359C18.1026 19.7238 15.3649 22.4616 12 22.4616Z" fill="#253E54"/>
</svg>
