<svg width="32" height="32" viewBox="0 0 32 32" fill="none" xmlns="http://www.w3.org/2000/svg">
<path d="M6.66667 24V29.0213L8.68667 27.8093L15.036 24H21.3333C22.804 24 24 22.804 24 21.3333V10.6667C24 9.196 22.804 8 21.3333 8H5.33333C3.86267 8 2.66667 9.196 2.66667 10.6667V21.3333C2.66667 22.804 3.86267 24 5.33333 24H6.66667ZM5.33333 10.6667H21.3333V21.3333H14.2973L9.33333 24.312V21.3333H5.33333V10.6667Z" fill="#FFFEF1"/>
<path d="M26.6667 2.66669H25.3333H22.664H10.6667C9.196 2.66669 8 3.86269 8 5.33335H22.1147H24C25.4707 5.33335 26.6667 6.52935 26.6667 8.00002V9.88535V16V18.6667C28.1373 18.6667 29.3333 17.4707 29.3333 16V9.33335V6.66669V5.33335C29.3333 3.86269 28.1373 2.66669 26.6667 2.66669Z" fill="#FFFEF1"/>
</svg>
