<svg
  width="13"
  height="14"
  viewBox="0 0 13 14"
  fill="none"
  xmlns="http://www.w3.org/2000/svg"
>
<path
    d="M12.5 4.96001C12.4931 4.89877 12.4796 4.83843 12.46 4.78001V4.72001C12.4279 4.65146 12.3852 4.58845 12.3333 4.53334L8.33333 0.533343C8.27822 0.481488 8.21521 0.438731 8.14667 0.406677C8.12677 0.40385 8.10657 0.40385 8.08667 0.406677C8.01894 0.367838 7.94415 0.342906 7.86667 0.333344H5.16667C4.63623 0.333344 4.12753 0.544057 3.75245 0.91913C3.37738 1.2942 3.16667 1.80291 3.16667 2.33334V3.00001H2.5C1.96957 3.00001 1.46086 3.21072 1.08579 3.5858C0.710714 3.96087 0.5 4.46958 0.5 5.00001V11.6667C0.5 12.1971 0.710714 12.7058 1.08579 13.0809C1.46086 13.456 1.96957 13.6667 2.5 13.6667H7.83333C8.36377 13.6667 8.87247 13.456 9.24755 13.0809C9.62262 12.7058 9.83333 12.1971 9.83333 11.6667V11H10.5C11.0304 11 11.5391 10.7893 11.9142 10.4142C12.2893 10.0392 12.5 9.53044 12.5 9.00001V5.00001C12.5 5.00001 12.5 5.00001 12.5 4.96001ZM8.5 2.60668L10.2267 4.33334H9.16667C8.98986 4.33334 8.82029 4.26311 8.69526 4.13808C8.57024 4.01306 8.5 3.84349 8.5 3.66668V2.60668ZM8.5 11.6667C8.5 11.8435 8.42976 12.0131 8.30474 12.1381C8.17971 12.2631 8.01014 12.3333 7.83333 12.3333H2.5C2.32319 12.3333 2.15362 12.2631 2.0286 12.1381C1.90357 12.0131 1.83333 11.8435 1.83333 11.6667V5.00001C1.83333 4.8232 1.90357 4.65363 2.0286 4.52861C2.15362 4.40358 2.32319 4.33334 2.5 4.33334H3.16667V9.00001C3.16667 9.53044 3.37738 10.0392 3.75245 10.4142C4.12753 10.7893 4.63623 11 5.16667 11H8.5V11.6667ZM11.1667 9.00001C11.1667 9.17682 11.0964 9.34639 10.9714 9.47141C10.8464 9.59644 10.6768 9.66668 10.5 9.66668H5.16667C4.98986 9.66668 4.82029 9.59644 4.69526 9.47141C4.57024 9.34639 4.5 9.17682 4.5 9.00001V2.33334C4.5 2.15653 4.57024 1.98696 4.69526 1.86194C4.82029 1.73691 4.98986 1.66668 5.16667 1.66668H7.16667V3.66668C7.16667 4.19711 7.37738 4.70582 7.75245 5.08089C8.12753 5.45596 8.63623 5.66668 9.16667 5.66668H11.1667V9.00001Z"
    fill="currentColor"
  />
</svg>
