<svg width="18" height="18" viewBox="0 0 18 18" fill="none" xmlns="http://www.w3.org/2000/svg">
<path d="M16.1948 5.40225C16.1093 5.0853 15.9424 4.79625 15.7105 4.56387C15.4787 4.3315 15.19 4.16389 14.8733 4.07775C13.6988 3.75525 9 3.75 9 3.75C9 3.75 4.302 3.74475 3.12675 4.053C2.8102 4.14311 2.52212 4.31308 2.29018 4.5466C2.05824 4.78012 1.89022 5.06934 1.80225 5.3865C1.4925 6.561 1.4895 8.997 1.4895 8.997C1.4895 8.997 1.4865 11.445 1.794 12.6075C1.9665 13.2502 2.47275 13.758 3.11625 13.9312C4.30275 14.2537 8.98875 14.259 8.98875 14.259C8.98875 14.259 13.6875 14.2642 14.862 13.9567C15.1789 13.8708 15.4678 13.7035 15.7002 13.4716C15.9327 13.2397 16.1005 12.9512 16.1873 12.6345C16.4978 11.4607 16.5 9.0255 16.5 9.0255C16.5 9.0255 16.515 6.57675 16.1948 5.40225V5.40225ZM7.497 11.2537L7.50075 6.75375L11.406 9.0075L7.497 11.2537V11.2537Z" fill="#F19834"/>
</svg>
