<svg width="55" height="55" viewBox="0 0 55 55" fill="none" xmlns="http://www.w3.org/2000/svg">
<g clip-path="url(#clip0)">
<path d="M24.7892 36.7059C24.7763 36.5908 24.7213 36.4844 24.635 36.4072C24.5486 36.33 24.4367 36.2873 24.3209 36.2873C24.205 36.2873 24.0932 36.33 24.0068 36.4072C23.9204 36.4844 23.8655 36.5908 23.8525 36.7059C23.8231 37.9961 23.8525 39.3451 23.8879 40.7118H17.3488C16.1706 35.7928 17.9379 30.9681 17.9379 30.921C18.6142 29.0974 19.1152 27.2136 19.4343 25.295C19.4708 24.8701 19.4208 24.4421 19.2871 24.0371C19.1534 23.632 18.939 23.2583 18.6566 22.9386C18.203 22.3675 17.9689 21.6527 17.9968 20.9239C18.0461 18.494 18.4429 16.0838 19.1751 13.7663C19.2637 13.5107 19.4341 13.2915 19.6598 13.1424C19.8855 12.9933 20.1541 12.9228 20.4239 12.9416L22.2678 13.0417C22.3302 13.0449 22.3926 13.0356 22.4514 13.0145C22.5101 12.9933 22.5641 12.9607 22.6102 12.9185C22.6562 12.8762 22.6934 12.8253 22.7196 12.7686C22.7458 12.7119 22.7604 12.6505 22.7627 12.5881V12.5881C22.7659 12.527 22.7569 12.4658 22.7364 12.4081C22.7159 12.3505 22.6843 12.2974 22.6432 12.252C22.6022 12.2065 22.5526 12.1697 22.4973 12.1434C22.4419 12.1172 22.382 12.1022 22.3209 12.0992V12.0992L20.4711 11.999C19.9917 11.9711 19.5166 12.1036 19.1209 12.3756C18.7252 12.6476 18.4312 13.0437 18.2855 13.5012C17.5143 15.8979 17.0994 18.3948 17.0543 20.9121C17.0408 21.8506 17.3578 22.764 17.9497 23.4924C18.1566 23.7116 18.3158 23.9714 18.4172 24.2553C18.5186 24.5393 18.56 24.8411 18.5388 25.1419C18.221 26.9925 17.736 28.8104 17.0896 30.5734C16.9777 30.8738 15.0985 35.9931 16.5418 41.2891C16.583 41.4305 16.7538 41.9843 16.801 42.1198C16.8893 42.3849 16.9895 42.6441 17.0896 42.8974C17.2224 43.224 17.4499 43.5035 17.7428 43.6998C18.0357 43.8961 18.3806 44.0003 18.7332 43.999H23.1397C23.6004 43.9992 24.0429 43.8195 24.373 43.4981C24.7031 43.1768 24.8947 42.7393 24.907 42.2788C24.9129 42.2279 24.9129 42.1765 24.907 42.1257C24.7951 40.3348 24.7538 38.5086 24.7892 36.7059Z" fill="white"/>
<path d="M33.084 12.6774L24.4772 12.2179C24.3499 12.1992 24.2203 12.2318 24.117 12.3086C24.0137 12.3854 23.9451 12.5 23.9264 12.6274C23.9076 12.7547 23.9402 12.8843 24.017 12.9876C24.0938 13.0909 24.2085 13.1594 24.3358 13.1782H24.4301L31.2224 13.5434V20.8365C28.0471 21.6966 26.3152 24.7658 26.1443 25.0839C24.9308 26.9337 24.1885 30.1031 23.9352 34.5095C23.9312 34.5707 23.9393 34.632 23.9591 34.69C23.9789 34.748 24.0099 34.8015 24.0504 34.8475C24.0909 34.8935 24.1401 34.931 24.1951 34.9579C24.2502 34.9849 24.31 35.0006 24.3712 35.0044C24.4908 35.0032 24.6056 34.9572 24.6929 34.8754C24.7802 34.7935 24.8336 34.6819 24.8424 34.5626C24.9148 32.8597 25.1117 31.1645 25.4315 29.4904H27.3167C27.4954 29.4889 27.672 29.4521 27.8365 29.3823C28.0011 29.3125 28.1502 29.211 28.2755 29.0835C28.4007 28.9561 28.4997 28.8052 28.5666 28.6395C28.6336 28.4738 28.6673 28.2965 28.6657 28.1178C28.6715 28.0472 28.6715 27.9763 28.6657 27.9057C28.4727 26.5016 28.3645 25.0872 28.3417 23.6701C29.2499 22.6799 30.4338 21.9843 31.7408 21.673L33.137 21.4256C33.4629 21.3879 33.7634 21.2311 33.9809 20.9854C34.1983 20.7397 34.3174 20.4223 34.3152 20.0942V14.0265C34.3192 13.6874 34.1943 13.3595 33.9658 13.109C33.7372 12.8586 33.422 12.7043 33.084 12.6774V12.6774Z" fill="white"/>
<path d="M20.2003 14.9455C19.6856 16.521 19.3941 18.1609 19.3343 19.8174C19.3327 20.1091 19.4463 20.3896 19.6504 20.5981C19.8544 20.8066 20.1325 20.9261 20.4242 20.9308H20.5479L29.1311 20.0648C29.4031 20.0401 29.6564 19.9158 29.8424 19.7157C30.0283 19.5157 30.1338 19.2539 30.1385 18.9808V15.3107C30.1416 15.1651 30.1158 15.0203 30.0626 14.8846C30.0093 14.749 29.9297 14.6253 29.8284 14.5207C29.727 14.416 29.6059 14.3325 29.4721 14.275C29.3382 14.2175 29.1943 14.1871 29.0486 14.1856H21.2548C21.0214 14.1849 20.7937 14.2581 20.6044 14.3946C20.415 14.531 20.2736 14.7239 20.2003 14.9455V14.9455Z" fill="white"/>
<path d="M38.2798 13.6789C38.1825 13.6197 38.067 13.5978 37.9548 13.6171C37.8425 13.6365 37.7411 13.6959 37.6692 13.7842C37.5973 13.8726 37.5599 13.9841 37.5639 14.0979C37.5678 14.2118 37.6129 14.3203 37.6907 14.4035V14.4035C38.0467 14.6929 38.3421 15.0496 38.56 15.4533C38.7779 15.857 38.914 16.2998 38.9605 16.7562C39.0071 17.2126 38.9631 17.6736 38.8311 18.113C38.6991 18.5524 38.4818 18.9614 38.1915 19.3166C38.0519 19.4846 37.8982 19.6403 37.732 19.782C37.685 19.8211 37.6464 19.8692 37.6183 19.9234C37.5901 19.9777 37.5731 20.0369 37.5682 20.0978C37.5632 20.1587 37.5705 20.22 37.5895 20.278C37.6085 20.3361 37.6389 20.3898 37.6789 20.4359C37.7233 20.4878 37.7784 20.5294 37.8405 20.5579C37.9025 20.5864 37.97 20.601 38.0383 20.6009C38.1475 20.6001 38.2532 20.5627 38.3387 20.4948C39.2347 19.7337 39.7924 18.6484 39.8896 17.4768C39.9867 16.3052 39.6155 15.1428 38.8572 14.2445C38.6826 14.0385 38.4893 13.8492 38.2798 13.6789V13.6789Z" fill="white"/>
<path d="M37.3019 15.623C37.2046 15.5638 37.0891 15.5418 36.9769 15.5612C36.8646 15.5805 36.7632 15.6399 36.6913 15.7283C36.6194 15.8167 36.582 15.9281 36.586 16.042C36.5899 16.1558 36.635 16.2644 36.7128 16.3476V16.3476C36.8262 16.4363 36.9176 16.5499 36.9799 16.6797C37.0422 16.8094 37.0738 16.9518 37.0722 17.0957C37.0706 17.2371 37.0388 17.3765 36.9788 17.5045C36.9189 17.6326 36.8322 17.7463 36.7246 17.838C36.6324 17.9159 36.5746 18.0269 36.5636 18.147C36.5526 18.2671 36.5892 18.3868 36.6657 18.4801V18.4801C36.7101 18.532 36.7652 18.5736 36.8272 18.6021C36.8893 18.6306 36.9568 18.6452 37.025 18.6451C37.1342 18.6443 37.24 18.6069 37.3255 18.539C37.519 18.3782 37.679 18.1808 37.7962 17.9581C37.9134 17.7355 37.9855 17.4919 38.0085 17.2413C38.0315 16.9907 38.0048 16.738 37.9301 16.4978C37.8554 16.2575 37.734 16.0343 37.5729 15.8409C37.5011 15.7485 37.418 15.6653 37.3255 15.5935L37.3019 15.623Z" fill="white"/>
</g>
<defs>
<clipPath id="clip0">
<rect width="23.9057" height="32" fill="white" transform="translate(16 12)"/>
</clipPath>
</defs>
</svg>
