<svg width="55" height="55" viewBox="0 0 55 55" fill="none" xmlns="http://www.w3.org/2000/svg">
<g clip-path="url(#clip0)">
<path d="M33.747 26.059C33.6842 25.9521 33.5815 25.8745 33.4616 25.8433C33.3416 25.8121 33.2142 25.8299 33.1073 25.8927C33.0005 25.9554 32.9229 26.0581 32.8917 26.178C32.8605 26.298 32.8783 26.4254 32.941 26.5323C32.9793 26.6026 33.0371 26.6603 33.1073 26.6986L33.4591 27.0504H22.6048L22.9566 26.6986C23.066 26.635 23.1457 26.5305 23.1781 26.4081C23.2105 26.2858 23.1929 26.1556 23.1293 26.0462C23.0657 25.9367 22.9612 25.8571 22.8389 25.8247C22.7165 25.7923 22.5863 25.8099 22.4769 25.8735C22.4114 25.9156 22.3566 25.9726 22.317 26.0398L21.1209 27.2231C21.0381 27.3089 20.9918 27.4236 20.9918 27.5429C20.9918 27.6622 21.0381 27.7768 21.1209 27.8627L22.3042 29.0715C22.3471 29.1165 22.3987 29.1522 22.4559 29.1764C22.5131 29.2006 22.5747 29.2128 22.6368 29.2123C22.7273 29.2125 22.8159 29.1861 22.8914 29.1363C22.967 29.0865 23.0262 29.0156 23.0617 28.9323C23.0972 28.8491 23.1074 28.7572 23.0909 28.6682C23.0745 28.5792 23.0323 28.497 22.9694 28.4319L22.5473 28.0098H33.5039L33.1073 28.4319C33.0347 28.519 32.9973 28.63 33.0024 28.7433C33.0076 28.8565 33.0548 28.9637 33.135 29.0439C33.2151 29.124 33.3224 29.1713 33.4356 29.1764C33.5488 29.1816 33.6599 29.1441 33.747 29.0715L34.9366 27.8883C35.0166 27.801 35.061 27.6869 35.061 27.5684C35.061 27.45 35.0166 27.3359 34.9366 27.2486L33.747 26.059Z" fill="white"/>
<path d="M43.693 19.5669C43.8834 19.352 43.9861 19.0735 43.9808 18.7865V16.6118C43.9809 16.1887 43.8146 15.7826 43.5178 15.481C43.221 15.1795 42.8176 15.0067 42.3946 15H40.0344C39.693 15.007 39.3629 15.123 39.0922 15.3312C38.8216 15.5393 38.6246 15.8286 38.5303 16.1568C38.4359 16.4849 38.449 16.8346 38.5678 17.1547C38.6865 17.4749 38.9046 17.7486 39.1901 17.9358V18.6458C39.195 19.092 39.327 19.5275 39.5705 19.9013C39.8141 20.2751 40.1592 20.5718 40.5653 20.7565V21.0124L38.1155 22.3364L36.945 19.9059C36.7878 19.5676 36.5033 19.3052 36.1535 19.1758C35.8036 19.0464 35.4168 19.0605 35.0774 19.2151V19.2151C34.7425 19.3671 34.4817 19.6458 34.3522 19.99C34.2227 20.3342 34.235 20.7157 34.3866 21.0508L34.4249 21.1339L36.1775 24.8757C36.2932 25.1178 36.4743 25.3228 36.7003 25.4675C36.9264 25.6122 37.1884 25.6908 37.4567 25.6944C37.6806 25.6885 37.8999 25.6293 38.0963 25.5217L39.1389 24.9588V28.6558C39.1325 28.6723 39.1325 28.6905 39.1389 28.707V28.707L39.5675 30.7026C39.7541 31.5556 39.8484 32.4262 39.8489 33.2994V37.0028C39.4515 37.066 39.0893 37.2676 38.826 37.5718C38.5627 37.8761 38.4153 38.2635 38.4098 38.6658V39.4205C38.4017 39.4855 38.4073 39.5513 38.4263 39.6139C38.4454 39.6765 38.4773 39.7344 38.5201 39.7838C38.5629 39.8333 38.6157 39.8732 38.6749 39.901C38.7341 39.9287 38.7985 39.9437 38.8639 39.945H42.2155C42.3393 39.945 42.4581 39.8958 42.5456 39.8083C42.6332 39.7207 42.6824 39.6019 42.6824 39.4781V32.0074C42.6809 31.7738 42.7221 31.5418 42.8039 31.323C42.8805 31.0911 42.9974 30.8746 43.1493 30.6834C43.6 30.146 43.8448 29.4659 43.8401 28.7645V25.6752C43.8266 25.56 43.7713 25.4537 43.6846 25.3765C43.598 25.2994 43.486 25.2568 43.37 25.2568C43.254 25.2568 43.142 25.2994 43.0553 25.3765C42.9686 25.4537 42.9133 25.56 42.8999 25.6752V28.1697H40.1047V24.4535L41.9532 23.4557C42.1511 23.3529 42.3219 23.2049 42.4519 23.0238C42.5819 22.8427 42.6675 22.6335 42.7016 22.4132C42.8505 22.6463 42.9303 22.9168 42.9318 23.1935V23.6924C42.9382 23.7545 42.9569 23.8146 42.9868 23.8693C43.0168 23.9241 43.0574 23.9722 43.1063 24.011C43.1552 24.0497 43.2114 24.0783 43.2715 24.095C43.3316 24.1117 43.3945 24.1161 43.4563 24.1081C43.5624 24.0959 43.6611 24.0481 43.7366 23.9726C43.8121 23.8972 43.8598 23.7984 43.8721 23.6924V23.2063C43.867 22.687 43.6918 22.1837 43.3732 21.7735V20.1169C43.5003 19.9463 43.6076 19.7617 43.693 19.5669V19.5669Z" fill="white"/>
<path d="M21.4215 18.1981C21.3144 18.0479 21.1782 17.9208 21.0212 17.8241C20.8641 17.7275 20.6892 17.6632 20.5069 17.6352C20.3218 17.6063 20.1329 17.6146 19.9511 17.6597C19.7693 17.7047 19.5983 17.7856 19.4482 17.8976C19.2981 18.0096 19.1718 18.1505 19.0768 18.3119C18.9819 18.4733 18.9201 18.6521 18.8951 18.8377V18.8377L18.4729 21.4857L16.3302 20.9996V20.635C16.6632 20.4233 16.9378 20.1314 17.1289 19.7861C17.3199 19.4409 17.4214 19.0532 17.4239 18.6586V18.39H17.4751C17.5929 18.3837 17.7041 18.3336 17.7869 18.2496C17.8698 18.1656 17.9182 18.0537 17.9228 17.9358V17.2962C17.9228 16.017 17.1553 15.307 15.8121 15.307H15.0638C14.8475 15.3076 14.6323 15.3378 14.4241 15.3966H14.373C13.8128 15.5554 13.3112 15.8742 12.9295 16.3139C12.5478 16.7535 12.3025 17.295 12.2239 17.8719L12 19.4773C11.9745 19.6832 11.9927 19.8921 12.0533 20.0904C12.1139 20.2888 12.2156 20.4722 12.3518 20.6286C12.4885 20.7839 12.6568 20.9082 12.8454 20.9931C13.0341 21.078 13.2387 21.1217 13.4455 21.1211H13.4903V21.4729C13.2443 21.6924 13.0476 21.9614 12.9131 22.2624C12.7786 22.5634 12.7094 22.8894 12.71 23.2191V30.1909C12.71 30.2522 12.7221 30.3129 12.7455 30.3696C12.769 30.4262 12.8034 30.4777 12.8467 30.521C12.8901 30.5644 12.9416 30.5988 12.9982 30.6223C13.0549 30.6457 13.1156 30.6578 13.1769 30.6578C13.2382 30.6578 13.2989 30.6457 13.3556 30.6223C13.4122 30.5988 13.4637 30.5644 13.5071 30.521C13.5504 30.4777 13.5848 30.4262 13.6083 30.3696C13.6317 30.3129 13.6438 30.2522 13.6438 30.1909V28.0418H16.4773V32.5191H13.6566V32.1673C13.6566 32.0435 13.6074 31.9247 13.5198 31.8371C13.4323 31.7496 13.3135 31.7004 13.1897 31.7004C13.0659 31.7004 12.9471 31.7496 12.8595 31.8371C12.772 31.9247 12.7228 32.0435 12.7228 32.1673V32.1673V32.986C12.7219 33.0473 12.7332 33.1082 12.7558 33.1652C12.7785 33.2221 12.8122 33.2741 12.855 33.318C12.8978 33.362 12.9488 33.3971 13.0051 33.4213C13.0614 33.4456 13.122 33.4585 13.1833 33.4593H13.9188V39.4333C13.9188 39.5572 13.968 39.6759 14.0556 39.7635C14.1432 39.8511 14.2619 39.9002 14.3858 39.9002H17.7182C17.842 39.9002 17.9608 39.8511 18.0483 39.7635C18.1359 39.6759 18.1851 39.5572 18.1851 39.4333V38.6658C18.1858 38.26 18.042 37.8672 17.7795 37.5578C17.517 37.2484 17.1528 37.0426 16.7523 36.9772V33.4593H16.9378C17.0617 33.456 17.1795 33.4049 17.2666 33.3167C17.3536 33.2284 17.4031 33.1099 17.4048 32.986V24.1145L19.3236 24.5239C19.4217 24.5496 19.5228 24.5625 19.6242 24.5623C19.9096 24.5602 20.1879 24.4734 20.4237 24.3128C20.5826 24.2043 20.7174 24.0643 20.8197 23.9014C20.922 23.7385 20.9897 23.5563 21.0186 23.3662L21.1721 22.4195C21.1916 22.2966 21.1615 22.1709 21.0883 22.0701C21.0151 21.9693 20.9049 21.9018 20.7819 21.8823C20.6589 21.8628 20.5332 21.8929 20.4325 21.9661C20.3317 22.0392 20.2642 22.1494 20.2447 22.2724L20.0975 23.2255C20.0891 23.2872 20.067 23.3463 20.0326 23.3983C19.9983 23.4504 19.9527 23.494 19.8993 23.5261C19.8483 23.5634 19.7901 23.5895 19.7284 23.6028C19.6666 23.616 19.6028 23.616 19.5411 23.6028V23.6028L15.2876 22.6754C15.1703 22.6565 15.065 22.5923 14.9945 22.4966C14.9239 22.4009 14.8937 22.2814 14.9103 22.1637C14.9103 22.1637 14.9103 22.1317 14.9103 22.1189C14.9196 22.0604 14.9404 22.0043 14.9716 21.9538C15.0027 21.9034 15.0436 21.8597 15.0918 21.8252C15.14 21.7907 15.1945 21.7661 15.2523 21.7528C15.3101 21.7395 15.3699 21.7379 15.4283 21.7479H15.4731L18.7607 22.4643C18.8812 22.4911 19.0073 22.4691 19.1115 22.4032C19.2158 22.3373 19.2897 22.2328 19.3172 22.1125C19.3172 22.1125 19.3172 22.1125 19.3172 22.0805L19.8225 18.9464C19.8414 18.8244 19.9079 18.7149 20.0074 18.6417C20.1069 18.5686 20.2313 18.5379 20.3534 18.5563V18.5563C20.4736 18.5737 20.5821 18.6379 20.6551 18.735C20.7282 18.832 20.76 18.954 20.7436 19.0743V19.0743L20.5581 20.264C20.5377 20.3862 20.5667 20.5114 20.6387 20.6121C20.7107 20.7129 20.8197 20.7809 20.9418 20.8013C21.0647 20.8198 21.1899 20.7892 21.2904 20.7162C21.3909 20.6433 21.4587 20.5337 21.4791 20.4111L21.671 19.2215C21.7263 18.8608 21.6366 18.4929 21.4215 18.1981Z" fill="white"/>
</g>
<defs>
<clipPath id="clip0">
<rect width="32" height="24.9131" fill="white" transform="translate(12 15)"/>
</clipPath>
</defs>
</svg>
