<svg width="55" height="55" viewBox="0 0 55 55" fill="none" xmlns="http://www.w3.org/2000/svg">
<g clip-path="url(#clip0)">
<path d="M22.3926 29.2181C23.0366 29.2181 23.5587 28.696 23.5587 28.052C23.5587 27.408 23.0366 26.886 22.3926 26.886C21.7486 26.886 21.2265 27.408 21.2265 28.052C21.2265 28.696 21.7486 29.2181 22.3926 29.2181Z" fill="white"/>
<path d="M30.5713 29.2181C31.2153 29.2181 31.7374 28.696 31.7374 28.052C31.7374 27.408 31.2153 26.886 30.5713 26.886C29.9273 26.886 29.4052 27.408 29.4052 28.052C29.4052 28.696 29.9273 29.2181 30.5713 29.2181Z" fill="white"/>
<path d="M14.7997 30.3896H15.4176C15.5653 33.2332 16.8004 35.9113 18.8675 37.8697V37.9825C18.8736 38.0416 18.888 38.0995 18.9105 38.1545C20.0066 39.0858 21.2706 39.7989 22.6344 40.2556C25.1169 41.1011 27.8094 41.1011 30.2919 40.2556C31.6581 39.806 32.9271 39.1022 34.0319 38.1813C34.0501 38.1254 34.0627 38.0678 34.0695 38.0094V37.8965C35.049 36.9725 35.8553 35.8805 36.45 34.6724C36.6345 36.3958 37.4502 37.99 38.74 39.1478C40.0298 40.3057 41.7025 40.9453 43.4358 40.9434C43.5134 40.9414 43.5898 40.9238 43.6606 40.8916C43.7313 40.8595 43.7948 40.8135 43.8474 40.7564C43.9 40.6993 43.9407 40.6322 43.9669 40.5591C43.9931 40.486 44.0043 40.4083 44 40.3308V26.3002C43.9887 24.451 43.2491 22.6807 41.9415 21.373C40.6338 20.0654 38.8635 19.3258 37.0143 19.3145H35.9395C34.7065 17.2895 32.8562 15.7137 30.6607 14.8188C28.4652 13.9238 26.0405 13.7571 23.7432 14.343C21.4459 14.9289 19.3972 16.2365 17.8985 18.0736C16.3999 19.9107 15.5302 22.1803 15.4176 24.5484H14.7997C14.0468 24.5807 13.3354 24.9026 12.8141 25.4467C12.2927 25.9909 12.0017 26.7154 12.0017 27.469C12.0017 28.2226 12.2927 28.9471 12.8141 29.4913C13.3354 30.0355 14.0468 30.3573 14.7997 30.3896V30.3896ZM36.9982 20.4484C38.5483 20.4512 40.034 21.069 41.1291 22.1661C42.2242 23.2633 42.8393 24.7501 42.8393 26.3002V39.7343C41.3979 39.5903 40.0616 38.9153 39.0903 37.8407C38.119 36.7661 37.582 35.3686 37.5839 33.9201V30.3896H38.1642C38.5494 30.4086 38.9345 30.3512 39.2974 30.2208C39.6603 30.0903 39.9938 29.8893 40.2786 29.6294C40.5635 29.3695 40.7942 29.0559 40.9573 28.7064C41.1204 28.357 41.2128 27.9788 41.2291 27.5935C41.2454 27.2082 41.1853 26.8235 41.0523 26.4615C40.9193 26.0996 40.716 25.7675 40.4541 25.4845C40.1921 25.2014 39.8768 24.973 39.5263 24.8124C39.1757 24.6517 38.7968 24.562 38.4114 24.5484H37.5516C37.4781 23.1294 37.1333 21.7376 36.536 20.4484H36.9982ZM37.5839 29.2181V25.7145H38.1642C38.6128 25.7393 39.0347 25.935 39.3435 26.2613C39.6522 26.5876 39.8243 27.0198 39.8243 27.469C39.8243 27.9182 39.6522 28.3504 39.3435 28.6767C39.0347 29.003 38.6128 29.1987 38.1642 29.2235L37.5839 29.2181ZM32.9088 32.5928L30.6895 32.1414L30.4638 33.286L32.9142 33.7803V35.156L30.4584 35.6934L30.6895 36.8218L32.9088 36.3758V37.7031C31.0284 39.0276 28.7847 39.7385 26.4846 39.7385C24.1846 39.7385 21.9408 39.0276 20.0605 37.7031V36.3597L22.2798 36.8057L22.5108 35.6772L20.0605 35.1882V33.7911L22.5108 33.2967L22.2798 32.1521L20.0605 32.5981V31.4697L26.5088 30.3949L32.9572 31.4697L32.9088 32.5928ZM36.4124 29.7985C36.4028 32.126 35.5754 34.3761 34.0749 36.1555V31.1956L36.4124 28.0789V29.7985ZM26.5088 15.2037C29.1347 15.215 31.6496 16.2643 33.5049 18.1226C35.3602 19.9809 36.4054 22.4975 36.4124 25.1234C29.733 24.9837 24.1498 22.3667 24.1498 19.293H22.9783C22.9783 22.3452 20.1464 24.8601 16.5568 25.1073C16.5654 22.4749 17.6182 19.9535 19.4841 18.0967C21.35 16.2399 23.8764 15.1994 26.5088 15.2037V15.2037ZM16.5568 26.2734C19.8831 26.0745 22.6613 24.1615 23.7038 21.5553C25.4717 24.2421 30.3295 26.1498 36.2727 26.2895L33.2366 30.3412L26.5787 29.2289C26.5161 29.2234 26.4532 29.2234 26.3906 29.2289L19.7058 30.3412L16.5568 26.671V26.2734ZM16.5568 28.4658L18.8675 31.1956V36.1716C17.3743 34.3878 16.5564 32.1355 16.5568 29.8092V28.4658ZM14.7997 25.7145H15.3854V29.2289H14.7997C14.3511 29.204 13.9291 29.0084 13.6204 28.6821C13.3117 28.3558 13.1396 27.9236 13.1396 27.4744C13.1396 27.0252 13.3117 26.593 13.6204 26.2667C13.9291 25.9404 14.3511 25.7447 14.7997 25.7199V25.7145Z" fill="white"/>
</g>
<defs>
<clipPath id="clip0">
<rect width="32" height="26.9165" fill="white" transform="translate(12 14)"/>
</clipPath>
</defs>
</svg>
