<svg width="32" height="32" viewBox="0 0 32 32" fill="none" xmlns="http://www.w3.org/2000/svg">
<path d="M25 10H21V7C21 6.447 20.553 6 20 6H12C11.447 6 11 6.447 11 7V14H7C6.447 14 6 14.447 6 15V23C6 23.553 6.447 24 7 24H11H16H21H25C25.553 24 26 23.553 26 23V11C26 10.447 25.553 10 25 10ZM10 22H8V20H10V22ZM10 18H8V16H10V18ZM15 22H13V20H15V22ZM15 18H13V16H15V18ZM15 14H13V12H15V14ZM15 10H13V8H15V10ZM19 22H17V20H19V22ZM19 18H17V16H19V18ZM19 14H17V12H19V14ZM19 10H17V8H19V10ZM24 22H22V20H24V22ZM24 18H22V16H24V18ZM24 14H22V12H24V14Z" fill="white"/>
</svg>
