<svg width="55" height="55" viewBox="0 0 55 55" fill="none" xmlns="http://www.w3.org/2000/svg">
<g clip-path="url(#clip0)">
<path d="M34.7363 31.6228C34.5353 31.4625 34.3041 31.3442 34.0565 31.2749C33.8089 31.2056 33.5499 31.1866 33.2949 31.2192L28.6118 31.8599C28.5679 31.8651 28.5235 31.8576 28.4837 31.8383C28.444 31.819 28.4106 31.7887 28.3876 31.7509C28.3656 31.7142 28.354 31.6721 28.354 31.6292C28.354 31.5864 28.3656 31.5443 28.3876 31.5075L29.0282 30.5786C29.097 30.4775 29.1228 30.3532 29.1 30.2331C29.0772 30.1129 29.0076 30.0068 28.9065 29.9379C28.8047 29.8733 28.6824 29.8492 28.5637 29.8706C28.445 29.8919 28.3387 29.9571 28.2659 30.0532L27.6252 30.9822C27.4494 31.2345 27.3797 31.5458 27.4312 31.849C27.4828 32.1522 27.6514 32.423 27.9007 32.603C28.1422 32.7691 28.4366 32.8399 28.7271 32.8016L33.4166 32.161C33.5449 32.1435 33.6754 32.1528 33.7999 32.188C33.9245 32.2233 34.0404 32.2839 34.1405 32.366C34.2696 32.4707 34.3689 32.6075 34.4284 32.7627C34.4879 32.9179 34.5055 33.0861 34.4796 33.2502C34.4536 33.4144 34.385 33.5689 34.2805 33.6982C34.176 33.8274 34.0394 33.927 33.8843 33.9868L25.0306 37.4334C23.8498 37.8946 22.5761 38.068 21.3149 37.9395L20.6038 37.8691C20.5014 37.8612 20.399 37.8834 20.3091 37.9331L15.0623 41.1363C14.9564 41.2003 14.8798 41.3031 14.8487 41.4228C14.8175 41.5425 14.8344 41.6696 14.8957 41.777C14.9371 41.8487 14.997 41.9079 15.0691 41.9485C15.1412 41.9891 15.223 42.0095 15.3057 42.0076C15.3919 42.008 15.4765 41.9835 15.5492 41.9371L20.6743 38.8044L21.2252 38.8621C22.6367 38.9965 24.0599 38.7923 25.3766 38.2663L29.5856 36.6518L31.1295 41.6681C31.1409 41.7322 31.1656 41.7933 31.202 41.8474C31.2384 41.9015 31.2858 41.9473 31.3409 41.9821C31.3961 42.0168 31.4579 42.0396 31.5224 42.049C31.5869 42.0584 31.6527 42.0542 31.7155 42.0367C31.7783 42.0192 31.8367 41.9888 31.8871 41.9474C31.9374 41.906 31.9785 41.8545 32.0078 41.7963C32.0371 41.738 32.0539 41.6743 32.0571 41.6092C32.0603 41.5441 32.0499 41.479 32.0264 41.4182L30.4569 36.3443L34.2302 34.8773C34.6948 34.6944 35.0678 34.3346 35.2672 33.877C35.4666 33.4193 35.4761 32.9011 35.2937 32.4364C35.1742 32.1399 34.9826 31.8779 34.7363 31.6741V31.6228Z" fill="white"/>
<path d="M16.3115 26.9077L17.0226 26.203C17.1056 26.117 17.152 26.0022 17.152 25.8827C17.152 25.7632 17.1056 25.6483 17.0226 25.5624C16.9352 25.4822 16.8209 25.4378 16.7023 25.4378C16.5837 25.4378 16.4694 25.4822 16.382 25.5624L15.6709 26.2607C15.0114 26.913 14.5115 27.7089 14.2102 28.5862L13.9219 29.5151L12.1986 30.7964C12.1066 30.8729 12.0464 30.9809 12.0298 31.0994C12.0132 31.2178 12.0414 31.3383 12.1089 31.437C12.1536 31.4927 12.2102 31.5376 12.2745 31.5686C12.3387 31.5997 12.4091 31.616 12.4805 31.6164C12.5325 31.6208 12.585 31.6146 12.6345 31.5981C12.6841 31.5815 12.7298 31.5551 12.7688 31.5203L14.5626 30.1237C14.6375 30.0683 14.6916 29.9893 14.7163 29.8995L15.0815 28.836C15.3394 28.108 15.7601 27.4485 16.3115 26.9077V26.9077Z" fill="white"/>
<path d="M40.8993 37.4014C40.8745 37.3424 40.8378 37.289 40.7916 37.2447C40.7453 37.2004 40.6905 37.1661 40.6304 37.1439C40.5703 37.1217 40.5064 37.112 40.4424 37.1155C40.3785 37.1191 40.3159 37.1357 40.2587 37.1644C40.1606 37.2085 40.0801 37.2842 40.0302 37.3794C39.9802 37.4747 39.9637 37.5839 39.9832 37.6897L41.2645 41.6809C41.2954 41.7756 41.3554 41.8581 41.4359 41.9167C41.5164 41.9754 41.6133 42.0072 41.7129 42.0076H41.8539C41.9128 41.99 41.9677 41.961 42.0153 41.9221C42.063 41.8833 42.1026 41.8354 42.1317 41.7812C42.1609 41.7271 42.1791 41.6677 42.1853 41.6065C42.1915 41.5453 42.1855 41.4835 42.1678 41.4246V41.4246L40.8993 37.4014Z" fill="white"/>
<path d="M38.4841 28.016C39.1998 27.1212 39.741 26.0998 40.0793 25.005L41.3606 20.9433C41.3793 20.8849 41.3862 20.8233 41.3809 20.7621C41.3755 20.701 41.358 20.6415 41.3293 20.5872C41.3007 20.5329 41.2615 20.4849 41.2141 20.4459C41.1666 20.407 41.1119 20.3779 41.0531 20.3604C40.9341 20.3241 40.8057 20.336 40.6954 20.3935C40.5852 20.451 40.5019 20.5495 40.4637 20.6679L39.1824 24.7231C38.877 25.7073 38.3879 26.6246 37.7409 27.4266L37.4462 27.8046C37.2503 28.0444 37.1479 28.3471 37.158 28.6567C37.1977 28.8728 37.249 29.0867 37.3117 29.2973C37.3621 29.4062 37.4456 29.4964 37.5503 29.555C37.655 29.6137 37.7755 29.6378 37.8947 29.624V29.624C38.0153 29.5871 38.1165 29.5043 38.1766 29.3934C38.2064 29.3391 38.2252 29.2795 38.2318 29.2179C38.2384 29.1563 38.2327 29.094 38.215 29.0346L38.0741 28.5798C38.0831 28.5083 38.1095 28.4401 38.151 28.3812L38.4841 28.016Z" fill="white"/>
<path d="M12.8905 21.4366C12.8892 21.7344 12.9763 22.0258 13.1407 22.2741C13.305 22.5224 13.5393 22.7163 13.8139 22.8315C14.0885 22.9466 14.3911 22.9777 14.6834 22.9208C14.9757 22.864 15.2445 22.7217 15.456 22.5121C15.6674 22.3024 15.812 22.0348 15.8713 21.743C15.9306 21.4512 15.9021 21.1484 15.7893 20.8728C15.6766 20.5972 15.4846 20.3613 15.2377 20.1948C14.9908 20.0283 14.7002 19.9388 14.4024 19.9375V19.9375C14.0036 19.9375 13.621 20.095 13.3378 20.3758C13.0546 20.6566 12.8939 21.0379 12.8905 21.4366V21.4366ZM14.9598 21.4366C14.9615 21.5117 14.9481 21.5864 14.9206 21.6563C14.893 21.7262 14.8518 21.7899 14.7992 21.8436C14.7467 21.8973 14.684 21.94 14.6147 21.9691C14.5455 21.9982 14.4711 22.0132 14.396 22.0132C14.2448 22.0132 14.0997 21.9531 13.9928 21.8462C13.8859 21.7393 13.8258 21.5943 13.8258 21.443C13.8258 21.2918 13.8859 21.1468 13.9928 21.0399C14.0997 20.9329 14.2448 20.8729 14.396 20.8729V20.8729C14.545 20.8745 14.6874 20.9345 14.7928 21.0398C14.8982 21.1452 14.9581 21.2876 14.9598 21.4366V21.4366Z" fill="white"/>
<path d="M42.2574 24.2362C41.9142 24.2425 41.5805 24.3501 41.2982 24.5454C41.0159 24.7406 40.7976 25.0149 40.6706 25.3338C40.5436 25.6527 40.5136 26.0021 40.5844 26.3379C40.6552 26.6738 40.8237 26.9813 41.0686 27.2218C41.3135 27.4623 41.624 27.6251 41.9611 27.6898C42.2983 27.7545 42.647 27.7182 42.9635 27.5854C43.2801 27.4526 43.5503 27.2293 43.7404 26.9435C43.9305 26.6576 44.032 26.322 44.032 25.9788C44.032 25.5166 43.8484 25.0734 43.5216 24.7466C43.1949 24.4198 42.7516 24.2362 42.2895 24.2362H42.2574ZM42.2574 26.7988C42.0454 26.7793 41.8497 26.6767 41.7129 26.5135C41.5761 26.3504 41.5093 26.1397 41.5271 25.9275C41.5453 25.7394 41.6279 25.5632 41.761 25.429C41.8941 25.2947 42.0694 25.2106 42.2574 25.1908C42.4707 25.1713 42.6829 25.2372 42.8475 25.3742C43.0121 25.5111 43.1156 25.7079 43.1351 25.9211C43.1547 26.1344 43.0887 26.3466 42.9517 26.5112C42.8148 26.6758 42.618 26.7793 42.4048 26.7988H42.2574Z" fill="white"/>
<path d="M14.9405 16.9009C15.3498 16.9009 15.7499 16.7795 16.0901 16.5522C16.4304 16.3248 16.6957 16.0016 16.8523 15.6235C17.0089 15.2454 17.0499 14.8293 16.97 14.4279C16.8902 14.0265 16.6931 13.6578 16.4037 13.3684C16.1143 13.079 15.7456 12.882 15.3442 12.8021C14.9428 12.7223 14.5268 12.7633 14.1487 12.9199C13.7705 13.0765 13.4474 13.3417 13.22 13.682C12.9926 14.0223 12.8713 14.4224 12.8713 14.8316V14.8316C12.8704 15.1031 12.9231 15.372 13.0264 15.623C13.1297 15.874 13.2815 16.1022 13.4732 16.2944C13.6648 16.4867 13.8925 16.6392 14.1432 16.7433C14.3939 16.8473 14.6627 16.9009 14.9341 16.9009H14.9405ZM14.9405 13.6977C15.1635 13.6977 15.3815 13.7638 15.5669 13.8877C15.7524 14.0116 15.8969 14.1877 15.9822 14.3937C16.0676 14.5998 16.0899 14.8265 16.0464 15.0452C16.0029 15.2639 15.8955 15.4648 15.7378 15.6225C15.5801 15.7802 15.3792 15.8876 15.1605 15.9311C14.9418 15.9746 14.7151 15.9523 14.509 15.8669C14.303 15.7816 14.1269 15.6371 14.003 15.4516C13.8791 15.2662 13.813 15.0482 13.813 14.8252C13.813 14.5262 13.9318 14.2394 14.1432 14.0279C14.3547 13.8165 14.6415 13.6977 14.9405 13.6977V13.6977Z" fill="white"/>
<path d="M35.441 21.3918L35.5115 21.2957H36.9209C37.1218 21.2963 37.318 21.2352 37.483 21.1206C37.648 21.006 37.7739 20.8435 37.8434 20.6551L38.6827 18.3487C38.857 17.8645 39.1473 17.4303 39.5281 17.0842C39.9089 16.738 40.3687 16.4903 40.8673 16.3628C41.0185 16.3259 41.1781 16.3504 41.3113 16.4308C41.4445 16.5112 41.5405 16.6411 41.5784 16.792C41.6072 16.8925 41.6072 16.999 41.5784 17.0995L41.0723 18.7395C41.0533 18.7972 41.0458 18.858 41.0503 18.9185C41.0548 18.979 41.0713 19.038 41.0986 19.0922C41.126 19.1463 41.1638 19.1946 41.2099 19.2341C41.2559 19.2736 41.3093 19.3037 41.367 19.3225C41.4254 19.3413 41.487 19.3482 41.5482 19.3428C41.6093 19.3374 41.6688 19.3199 41.7231 19.2913C41.7774 19.2627 41.8254 19.2235 41.8644 19.176C41.9033 19.1286 41.9324 19.0738 41.9499 19.015L42.4689 17.375C42.5553 17.1196 42.5709 16.8456 42.5141 16.582C42.4572 16.3185 42.3301 16.0752 42.1461 15.8781C41.9622 15.681 41.7283 15.5374 41.4693 15.4626C41.2103 15.3877 40.9358 15.3844 40.6751 15.453C40.0287 15.6175 39.432 15.9368 38.9365 16.3832C38.441 16.8296 38.0614 17.3899 37.8306 18.0156L36.985 20.3283C36.985 20.3283 36.985 20.3283 36.9465 20.3283H36.165L36.3572 20.0593C36.4907 19.8652 36.5825 19.6454 36.6265 19.4139C36.6705 19.1824 36.6659 18.9443 36.6128 18.7147C36.5598 18.4851 36.4596 18.269 36.3185 18.0803C36.1774 17.8916 35.9986 17.7343 35.7934 17.6184C35.6161 17.5213 35.4231 17.4562 35.2232 17.4262C35.3352 17.0951 35.3319 16.7359 35.2141 16.4068C35.0962 16.0778 34.8706 15.7982 34.5739 15.6135C34.2771 15.4288 33.9267 15.3498 33.5794 15.3892C33.2321 15.4287 32.9083 15.5844 32.6607 15.831L32.3788 16.1257C32.2745 15.8755 32.1093 15.6553 31.8983 15.4851C31.892 15.4528 31.8789 15.4222 31.8599 15.3954C31.8854 15.2191 31.8854 15.04 31.8599 14.8637C31.8436 14.5937 31.774 14.3296 31.6552 14.0866C31.5364 13.8437 31.3707 13.6266 31.1676 13.4479C30.9646 13.2693 30.7282 13.1326 30.472 13.0457C30.2159 12.9588 29.9451 12.9235 29.6753 12.9417C29.3253 12.9712 28.9883 13.088 28.6951 13.2813C28.3565 12.8572 27.8636 12.5847 27.3244 12.5234C26.7852 12.4622 26.2437 12.6172 25.8186 12.9546C25.641 13.0955 25.4874 13.2642 25.3638 13.4543L24.39 12.4805C24.2341 12.3242 24.0488 12.2001 23.8449 12.1155C23.641 12.0309 23.4224 11.9873 23.2016 11.9873C22.9808 11.9873 22.7622 12.0309 22.5583 12.1155C22.3544 12.2001 22.1691 12.3242 22.0132 12.4805C21.9694 12.52 21.9287 12.5628 21.8915 12.6086C21.7691 12.7669 21.6738 12.9444 21.6096 13.1339C21.2989 12.9542 20.9355 12.8879 20.5814 12.9463C20.2272 13.0046 19.9043 13.1841 19.6677 13.4539C19.4311 13.7238 19.2954 14.0674 19.2839 14.4261C19.2723 14.7849 19.3856 15.1365 19.6044 15.421L19.8478 15.7477C19.5652 15.8008 19.3005 15.9245 19.0785 16.1074C18.8565 16.2903 18.6844 16.5264 18.5783 16.7937C18.4721 17.061 18.4353 17.3508 18.4714 17.6362C18.5074 17.9215 18.6151 18.1931 18.7844 18.4256L19.7261 19.6877C19.4913 19.7383 19.2718 19.8437 19.0855 19.9952C18.7795 20.2412 18.5778 20.5938 18.5207 20.9823C18.4637 21.3708 18.5556 21.7665 18.778 22.0901L19.2264 22.7307L17.8042 24.1401C17.7413 24.2054 17.6989 24.2877 17.6825 24.3768C17.666 24.4659 17.6762 24.5579 17.7118 24.6413C17.7473 24.7247 17.8066 24.7958 17.8823 24.8456C17.958 24.8955 18.0467 24.922 18.1373 24.9217C18.199 24.9227 18.2603 24.9113 18.3175 24.8882C18.3748 24.8651 18.4268 24.8308 18.4705 24.7872L27.3754 15.9848C27.4923 15.8821 27.6426 15.8254 27.7982 15.8254C27.9538 15.8254 28.1041 15.8821 28.221 15.9848C28.3434 16.0978 28.4169 16.2541 28.426 16.4204C28.4288 16.5867 28.3667 16.7475 28.253 16.8689L24.1337 21.1355C24.0468 21.2173 23.9944 21.3291 23.9873 21.4482C23.9801 21.5673 24.0188 21.6846 24.0953 21.7762C24.1403 21.8298 24.1976 21.8717 24.2623 21.8985C24.327 21.9253 24.3971 21.936 24.4669 21.9299C24.5305 21.9361 24.5946 21.9278 24.6545 21.9056C24.7145 21.8834 24.7686 21.8479 24.8128 21.8018L30.2262 16.177C30.3312 16.0787 30.4618 16.0121 30.603 15.9849C30.7443 15.9577 30.8903 15.971 31.0243 16.0232C31.1582 16.0755 31.2747 16.1646 31.3602 16.2802C31.4457 16.3958 31.4968 16.5333 31.5075 16.6767C31.5143 16.7793 31.4989 16.8822 31.4624 16.9783C31.4259 17.0745 31.3692 17.1617 31.2961 17.234L25.7417 23.1215C25.6616 23.209 25.6172 23.3232 25.6172 23.4418C25.6172 23.5604 25.6616 23.6747 25.7417 23.7622C25.7838 23.8039 25.8339 23.8368 25.8889 23.8588C25.9439 23.8808 26.0028 23.8915 26.0621 23.8903C26.1268 23.891 26.1909 23.8783 26.2505 23.8529C26.31 23.8276 26.3637 23.7901 26.408 23.7429L33.3205 16.4845C33.392 16.4397 33.4716 16.4096 33.5547 16.3957C33.6379 16.3818 33.723 16.3844 33.8051 16.4034C33.8873 16.4225 33.9648 16.4576 34.0334 16.5066C34.1019 16.5557 34.1601 16.6179 34.2046 16.6895C34.26 16.779 34.2925 16.8807 34.2992 16.9858C34.3059 17.0908 34.2866 17.1959 34.243 17.2917L27.8366 24.9153C27.7971 24.9624 27.7672 25.0169 27.7487 25.0755C27.7302 25.1342 27.7234 25.1959 27.7288 25.2572C27.7342 25.3185 27.7515 25.3781 27.7799 25.4326C27.8083 25.4872 27.8472 25.5356 27.8943 25.5752C27.9414 25.6147 27.9958 25.6446 28.0545 25.6631C28.1132 25.6816 28.1749 25.6884 28.2362 25.683C28.2974 25.6777 28.3571 25.6603 28.4116 25.6319C28.4662 25.6035 28.5146 25.5646 28.5542 25.5175L34.3776 18.6178C34.504 18.4784 34.6782 18.3917 34.8656 18.3748C35.053 18.3579 35.2399 18.4122 35.3892 18.5268C35.5385 18.6413 35.6392 18.8079 35.6713 18.9933C35.7035 19.1787 35.6647 19.3694 35.5628 19.5275L29.419 28.3491C29.3714 28.4193 29.3438 28.501 29.339 28.5857C29.3343 28.6703 29.3526 28.7546 29.3921 28.8296C29.4316 28.9046 29.4907 28.9675 29.5631 29.0115C29.6356 29.0555 29.7186 29.079 29.8034 29.0795C29.8795 29.0802 29.9546 29.0618 30.0217 29.026C30.0889 28.9902 30.146 28.9381 30.1878 28.8745L30.5465 28.362C30.7475 28.6419 31.008 28.8739 31.3093 29.0412C31.6106 29.2085 31.9452 29.3069 32.2891 29.3293H32.4428C33.048 29.3233 33.6278 29.0855 34.0628 28.6648C34.4979 28.244 34.755 27.6725 34.7812 27.0679V26.818C35.3641 26.6893 35.8925 26.3824 36.2932 25.9399C36.6938 25.4974 36.9469 24.9412 37.0173 24.3485C37.0877 23.7557 36.972 23.1557 36.6861 22.6316C36.4002 22.1076 35.9584 21.6855 35.4218 21.4238L35.441 21.3918ZM22.6282 13.2172C22.6933 13.1353 22.7748 13.0679 22.8675 13.0193C22.9601 12.9708 23.062 12.9422 23.1664 12.9353C23.2715 12.9279 23.377 12.9436 23.4755 12.9812C23.574 13.0188 23.6631 13.0775 23.7365 13.1531L24.5181 13.9219C24.0108 14.1169 23.5811 14.4723 23.2945 14.9341L22.6538 14.1654C22.5479 14.0301 22.4903 13.8632 22.4903 13.6913C22.4903 13.5194 22.5479 13.3525 22.6538 13.2172H22.6282ZM19.8927 22.0452L19.5467 21.5391C19.5047 21.4097 19.5049 21.2703 19.5473 21.141C19.5898 21.0118 19.6723 20.8994 19.783 20.8201C19.8936 20.7409 20.0266 20.699 20.1626 20.7004C20.2987 20.7018 20.4308 20.7465 20.5397 20.828L20.7896 21.1612L19.8927 22.0452ZM21.4623 20.4949L19.5403 17.9323C19.4217 17.7719 19.3706 17.5713 19.3982 17.3737C19.4257 17.1761 19.5297 16.9971 19.6877 16.8753V16.8753C19.8452 16.748 20.0467 16.688 20.2482 16.7084C20.4498 16.7288 20.6351 16.8279 20.764 16.9842V16.9842L22.5449 19.3802L21.4623 20.4949ZM23.2689 18.7395L21.648 16.5293L21.5584 16.4204L20.3668 14.8957C20.2783 14.7679 20.2392 14.6124 20.2569 14.458C20.2746 14.3036 20.3478 14.1609 20.4629 14.0565C20.5891 13.9594 20.747 13.9129 20.9057 13.9259C21.0644 13.9389 21.2126 14.0106 21.3213 14.1269L22.9421 16.0488V16.2667C22.9414 16.6358 23.024 17.0003 23.1838 17.3331C23.3435 17.6658 23.5762 17.9583 23.8647 18.1886L23.2689 18.7395ZM30.9053 15.0623C30.6533 15.0432 30.4001 15.0791 30.1634 15.1676C29.9267 15.2561 29.712 15.395 29.5343 15.5748L29.2396 15.8759C29.1544 15.65 29.0134 15.4495 28.8296 15.2929C28.5367 15.0392 28.1597 14.9038 27.7723 14.9133C27.3848 14.9227 27.0149 15.0764 26.7347 15.3441L24.5694 17.4583C24.3041 17.2769 24.1039 17.0155 23.9978 16.7123C23.8918 16.409 23.8856 16.0797 23.9801 15.7727C24.0746 15.4656 24.2648 15.1968 24.523 15.0056C24.7812 14.8144 25.0937 14.7108 25.415 14.7099V14.7099C25.5614 14.7142 25.7047 14.6682 25.8213 14.5796C25.9379 14.491 26.0206 14.3652 26.0557 14.223C26.1415 13.9416 26.3352 13.7055 26.5944 13.5663C26.8536 13.4271 27.1574 13.396 27.4394 13.4799C27.7076 13.5538 27.937 13.7282 28.0801 13.9668C28.1303 14.0526 28.1989 14.1264 28.2808 14.1829C28.3627 14.2393 28.456 14.2771 28.5542 14.2935C28.6532 14.3106 28.7547 14.3062 28.852 14.2808C28.9492 14.2554 29.0399 14.2095 29.1179 14.1461C29.3202 13.9929 29.569 13.9138 29.8226 13.9219C30.0939 13.9366 30.3506 14.0493 30.545 14.239C30.7394 14.4287 30.8583 14.6825 30.8797 14.9534L30.9053 15.0623ZM34.4609 25.8891C34.2524 25.9232 34.0659 26.0384 33.9419 26.2094C33.8254 26.3823 33.7775 26.5924 33.8074 26.7988C33.8138 26.8777 33.8138 26.957 33.8074 27.0358C33.8074 27.2201 33.7711 27.4025 33.7006 27.5727C33.6301 27.743 33.5268 27.8976 33.3965 28.0279C33.2662 28.1582 33.1115 28.2615 32.9413 28.332C32.7711 28.4025 32.5886 28.4388 32.4044 28.4388H32.3147C32.0522 28.419 31.8004 28.3263 31.5877 28.1713C31.3749 28.0162 31.2096 27.805 31.1103 27.5612L34.8645 22.1798C35.2712 22.3267 35.6165 22.6065 35.8445 22.9739C36.0726 23.3414 36.17 23.775 36.1211 24.2047C36.0722 24.6344 35.8799 25.035 35.5751 25.3418C35.2703 25.6487 34.871 25.8437 34.4416 25.8955L34.4609 25.8891Z" fill="white"/>
<path d="M41.1748 34.5762C41.1754 34.2982 41.1048 34.0247 40.9698 33.7818C40.8644 33.5855 40.8369 33.3567 40.8929 33.1411C40.9501 32.9327 40.9718 32.7161 40.957 32.5005C40.9356 32.1529 40.8306 31.8155 40.651 31.5171C40.4715 31.2187 40.2226 30.968 39.9255 30.7863C39.6283 30.6046 39.2918 30.4972 38.9443 30.4733C38.5969 30.4494 38.2488 30.5097 37.9295 30.649C37.6103 30.7883 37.3295 31.0025 37.1107 31.2735C36.892 31.5446 36.7418 31.8643 36.673 32.2057C36.6042 32.5472 36.6187 32.9001 36.7154 33.2347C36.8121 33.5693 36.9881 33.8756 37.2284 34.1277L37.4526 34.3327C37.6226 34.4623 37.7352 34.6531 37.7666 34.8645V34.999C37.8523 35.3564 38.0492 35.6773 38.329 35.9156C38.6087 36.1539 38.9569 36.2973 39.3233 36.3251H39.4514C39.8877 36.3315 40.3089 36.1658 40.6238 35.8639C40.801 35.7 40.9416 35.5006 41.0366 35.2788C41.1315 35.0569 41.1786 34.8175 41.1748 34.5762V34.5762ZM39.9832 35.1527C39.8274 35.2807 39.6278 35.3429 39.4269 35.3262C39.2259 35.3094 39.0394 35.2151 38.9069 35.0631C38.8236 34.9723 38.7641 34.8622 38.7339 34.7427C38.7404 34.7219 38.7404 34.6995 38.7339 34.6787C38.6741 34.2377 38.4442 33.8376 38.0933 33.564C37.8935 33.4028 37.7485 33.1838 37.6782 32.9369C37.6079 32.69 37.6158 32.4275 37.7008 32.1853C37.7857 31.943 37.9436 31.7331 38.1527 31.5842C38.3617 31.4353 38.6118 31.3548 38.8685 31.3538H38.9069C39.2122 31.374 39.4993 31.506 39.7132 31.7247C39.9272 31.9434 40.0529 32.2333 40.0665 32.5389C40.0731 32.6577 40.0601 32.7767 40.028 32.8913V32.8913C39.9253 33.3237 39.9822 33.7787 40.1882 34.1726C40.2543 34.285 40.2876 34.4137 40.2843 34.5441C40.285 34.662 40.2582 34.7785 40.2059 34.8842C40.1536 34.9898 40.0774 35.0818 39.9832 35.1527V35.1527Z" fill="white"/>
</g>
<defs>
<clipPath id="clip0">
<rect width="32" height="30.0332" fill="white" transform="translate(12 12)"/>
</clipPath>
</defs>
</svg>
