<svg width="55" height="55" viewBox="0 0 55 55" fill="none" xmlns="http://www.w3.org/2000/svg">
<g clip-path="url(#clip0)">
<path d="M17.2 35.3333H20.5173L20.128 23.3653H17.5253L17.2 35.3333Z" fill="white"/>
<path d="M42.6347 39.3013V37.3493H40.6827V35.984H15.3173V37.3493H13.3653V39.3013H12V40.6667H44V39.3013H42.6347Z" fill="white"/>
<path d="M41.984 19.856L28 14L14.016 19.856V20.6987H41.984V19.856Z" fill="white"/>
<path d="M39.3173 21.3493H16.6827V22.6507H39.3173V21.3493Z" fill="white"/>
<path d="M35.4774 35.3333H38.7947L38.4054 23.3653H35.8027L35.4774 35.3333Z" fill="white"/>
<path d="M29.3653 35.3333H32.7467L32.3573 23.3653H29.6907L29.3653 35.3333Z" fill="white"/>
<path d="M23.248 35.3333H26.6347L26.24 23.3653H23.6427L23.248 35.3333Z" fill="white"/>
</g>
<defs>
<clipPath id="clip0">
<rect width="32" height="26.6667" fill="white" transform="translate(12 14)"/>
</clipPath>
</defs>
</svg>
