<svg width="55" height="55" viewBox="0 0 55 55" fill="none" xmlns="http://www.w3.org/2000/svg">
<g clip-path="url(#clip0)">
<path d="M34.5422 28.0252C34.5422 28.1595 34.5956 28.2882 34.6905 28.3832C34.7854 28.4781 34.9142 28.5314 35.0485 28.5314C35.1827 28.5314 35.3115 28.4781 35.4064 28.3832C35.5013 28.2882 35.5547 28.1595 35.5547 28.0252C35.5547 27.8915 35.5025 27.763 35.4091 27.6672C35.3157 27.5714 35.1886 27.516 35.0549 27.5126V27.5126C34.9873 27.5118 34.9203 27.5244 34.8577 27.5499C34.7951 27.5753 34.7382 27.6131 34.6905 27.6608C34.6427 27.7086 34.605 27.7655 34.5795 27.828C34.5541 27.8906 34.5414 27.9577 34.5422 28.0252V28.0252Z" fill="white"/>
<path d="M43.795 37.0985L35.6636 32.6901V30.0052C35.6636 29.8727 35.6109 29.7456 35.5172 29.6518C35.4235 29.5581 35.2964 29.5054 35.1638 29.5054C35.0312 29.5054 34.9041 29.5581 34.8104 29.6518C34.7167 29.7456 34.664 29.8727 34.664 30.0052C34.696 30.9087 34.664 31.4598 34.664 32.9592C34.6626 33.0491 34.6865 33.1376 34.733 33.2147C34.7794 33.2917 34.8465 33.3541 34.9267 33.3949C44.0384 38.3352 43.3977 38.002 43.5579 38.002C43.6586 37.9912 43.7536 37.95 43.8304 37.8839C43.9071 37.8178 43.962 37.7299 43.9877 37.632C44.0134 37.534 44.0087 37.4305 43.9743 37.3353C43.9399 37.24 43.8773 37.1575 43.795 37.0985V37.0985Z" fill="white"/>
<path d="M39.3737 42.1414C31.1462 36.1054 31.7998 36.5411 31.5755 36.5347C30.7731 36.518 30.0091 36.1883 29.4464 35.6161C28.8838 35.0438 28.5671 34.2743 28.5639 33.4718V23.5655C28.5639 23.0183 28.7813 22.4935 29.1682 22.1066C29.5551 21.7196 30.0799 21.5022 30.6272 21.5022C30.6928 21.5022 30.7578 21.5152 30.8184 21.5403C30.8791 21.5654 30.9342 21.6022 30.9806 21.6486C31.027 21.695 31.0638 21.7501 31.0889 21.8108C31.114 21.8714 31.127 21.9364 31.127 22.002V22.002V29.9091C31.127 30.0417 31.1796 30.1688 31.2733 30.2625C31.3671 30.3563 31.4942 30.4089 31.6268 30.4089C31.7593 30.4089 31.8864 30.3563 31.9802 30.2625C32.0739 30.1688 32.1266 30.0417 32.1266 29.9091V22.0084C32.1249 21.6107 31.9666 21.2296 31.6859 20.9478C31.4053 20.6659 31.0249 20.506 30.6272 20.5026C30.3144 20.5043 30.0035 20.5518 29.7044 20.6436L28.5639 12.8711C28.5705 12.6619 28.6501 12.4616 28.7889 12.3049C28.9276 12.1482 29.1168 12.0449 29.3236 12.013C29.5305 11.9811 29.742 12.0225 29.9215 12.13C30.101 12.2376 30.2373 12.4045 30.3068 12.602C32.2291 17.5935 33.6067 20.7397 34.3308 26.1158C34.3387 26.1808 34.3594 26.2436 34.3918 26.3005C34.4243 26.3574 34.4677 26.4073 34.5196 26.4473C34.5714 26.4872 34.6308 26.5165 34.6941 26.5332C34.7574 26.55 34.8234 26.5541 34.8883 26.5451V26.5451C34.9527 26.5372 35.0149 26.5166 35.0713 26.4846C35.1278 26.4526 35.1774 26.4098 35.2172 26.3586C35.2571 26.3074 35.2865 26.2489 35.3037 26.1863C35.3209 26.1237 35.3257 26.0584 35.3176 25.994V25.994C34.5871 20.4962 33.1454 17.2603 31.2231 12.2816C31.0508 11.8028 30.6957 11.4119 30.2357 11.1945C29.7757 10.9771 29.2482 10.9509 28.7689 11.1218C28.4793 11.2289 28.2214 11.4074 28.0192 11.6408C27.7956 11.402 27.5148 11.2242 27.2032 11.1242C26.8917 11.0243 26.5598 11.0055 26.239 11.0697C25.9182 11.1338 25.6191 11.2788 25.3699 11.4909C25.1208 11.703 24.9299 11.9751 24.8154 12.2816C23.0853 16.8054 20.4261 23.0849 20.3684 32.7221L12.2563 37.0985C12.1605 37.1524 12.0851 37.2362 12.0418 37.3372C11.9984 37.4382 11.9896 37.5506 12.0166 37.6571C12.0436 37.7636 12.1049 37.8583 12.1911 37.9264C12.2773 37.9946 12.3835 38.0324 12.4934 38.0341C12.6856 38.0341 12.0384 38.3545 21.1246 33.4269C21.2033 33.3845 21.2693 33.3217 21.3155 33.245C21.3617 33.1684 21.3865 33.0807 21.3873 32.9912C21.3873 22.3673 24.7769 15.3893 25.7765 12.5955C25.8172 12.4848 25.8794 12.3832 25.9594 12.2965C26.0394 12.2098 26.1358 12.1398 26.2429 12.0904C26.35 12.041 26.4659 12.0132 26.5838 12.0086C26.7016 12.004 26.8193 12.0228 26.9299 12.0637C27.0495 12.1096 27.1586 12.1793 27.2503 12.2688C27.4088 12.4305 27.5023 12.6449 27.513 12.8711L26.3725 20.6436C26.0755 20.5524 25.7668 20.505 25.4562 20.5026C25.0579 20.5043 24.6765 20.6637 24.3955 20.9459C24.1145 21.2281 23.9567 21.6102 23.9568 22.0084V29.9091C23.9568 30.0417 24.0094 30.1688 24.1031 30.2625C24.1969 30.3563 24.324 30.4089 24.4566 30.4089C24.5891 30.4089 24.7162 30.3563 24.81 30.2625C24.9037 30.1688 24.9564 30.0417 24.9564 29.9091V22.0084C24.9555 21.9428 24.9676 21.8776 24.9919 21.8167C25.0163 21.7557 25.0524 21.7001 25.0982 21.6531C25.144 21.6061 25.1986 21.5686 25.259 21.5427C25.3193 21.5168 25.3841 21.5031 25.4497 21.5022C25.9959 21.5056 26.5188 21.7241 26.905 22.1103C27.2912 22.4965 27.5097 23.0193 27.513 23.5655V33.4974C27.5098 34.2999 27.1931 35.0694 26.6305 35.6417C26.0678 36.2139 25.3038 36.5436 24.5014 36.5603C24.2707 36.5603 24.9435 36.1182 16.7032 42.167C16.6495 42.2052 16.604 42.2537 16.5693 42.3097C16.5347 42.3658 16.5116 42.4282 16.5014 42.4933C16.4913 42.5584 16.4943 42.6248 16.5102 42.6888C16.5262 42.7527 16.5548 42.8128 16.5943 42.8655C16.633 42.9185 16.6818 42.9634 16.7378 42.9975C16.7939 43.0317 16.8561 43.0545 16.921 43.0646C16.9858 43.0747 17.052 43.072 17.1158 43.0565C17.1796 43.041 17.2397 43.0131 17.2928 42.9744L24.6808 37.5535C25.3701 37.5162 26.0385 37.3036 26.6227 36.9358C27.2069 36.568 27.6876 36.0572 28.0192 35.4518C28.3493 36.0571 28.8288 36.568 29.4119 36.9359C29.9951 37.3037 30.6627 37.5163 31.3512 37.5535L38.7265 42.9744C38.8346 43.0529 38.9693 43.0855 39.1013 43.0651C39.2334 43.0447 39.352 42.973 39.4313 42.8655C39.5195 42.7668 39.565 42.6372 39.5578 42.5051C39.5506 42.373 39.4913 42.2491 39.3929 42.1606L39.3737 42.1414ZM28.0641 21.8931C27.8798 21.6024 27.6481 21.3446 27.3785 21.1306C27.3785 21.0857 27.34 21.4125 28.0833 16.3505C28.8266 21.4125 28.7753 21.0857 28.7881 21.1306C28.5032 21.3395 28.258 21.5978 28.0641 21.8931Z" fill="white"/>
</g>
<defs>
<clipPath id="clip0">
<rect width="32" height="32.0705" fill="white" transform="translate(12 11)"/>
</clipPath>
</defs>
</svg>
