<svg width="352" height="108" viewBox="0 0 352 108" fill="none" xmlns="http://www.w3.org/2000/svg">
<path d="M72.8484 15.4369C73.6193 15.8924 74.3201 16.4356 74.9508 17.0663C75.6166 17.697 76.2648 18.538 76.8956 19.5892C77.5263 20.6053 77.9993 21.7792 78.3147 23.1107C78.63 24.4072 78.8578 25.984 78.998 27.8412C79.1381 29.6633 79.0155 31.6781 78.63 33.8856C77.6489 40.5433 75.7918 47.0432 73.0586 53.3855C70.3605 59.7278 66.9441 65.527 62.8094 70.783C59.3053 75.1981 55.6962 78.7196 51.9819 81.3476C48.3027 84.0107 45.114 85.3422 42.4159 85.3422C42.3809 85.3422 42.3459 85.3422 42.3108 85.3422C41.8553 85.3422 41.4173 85.2897 40.9968 85.1845C40.5062 88.1279 40.1909 90.4055 40.0507 92.0174C40.1208 91.8422 40.1909 91.667 40.261 91.4918C40.3661 91.2115 40.5413 91.0187 40.7866 90.9136C41.0669 90.8085 41.3297 90.8085 41.575 90.9136C41.8553 91.0187 42.048 91.1939 42.1531 91.4392C42.2583 91.7196 42.2583 91.9824 42.1531 92.2276C41.5575 93.6993 41.0494 94.733 40.6289 95.3287C40.2434 95.9594 39.8054 96.2748 39.3149 96.2748C39.2098 96.2748 39.0871 96.2397 38.947 96.1697C38.5615 96.0645 38.2812 95.7842 38.106 95.3287C37.9658 94.9082 37.9483 93.822 38.0534 92.07C38.1936 90.3179 38.544 87.76 39.1046 84.3961C37.668 83.415 36.827 81.8032 36.5817 79.5606C36.5467 79.3854 36.5642 79.2102 36.6343 79.035C36.7044 78.8598 36.8095 78.7196 36.9497 78.6145C37.1249 78.5094 37.3001 78.4393 37.4753 78.4043C37.6154 78.4043 37.7381 78.4218 37.8432 78.4568C37.9833 78.4919 38.106 78.5444 38.2111 78.6145C38.3162 78.7196 38.4038 78.8247 38.4739 78.9299C38.544 79.035 38.579 79.1576 38.579 79.2978C38.7192 80.4541 39.017 81.3476 39.4726 81.9784C40.8742 73.849 43.6949 59.4124 47.9348 38.6686C49.7569 29.6633 51.0008 23.4786 51.6666 20.1148C51.1059 20.4652 50.5803 20.8156 50.0898 21.166C48.4429 22.3574 46.9011 23.6889 45.4644 25.1606C44.0278 26.5972 42.6612 28.2616 41.3647 30.1538C40.1033 32.0109 39.1046 33.9732 38.3688 36.0406C37.6329 38.0729 37.1424 40.2804 36.8971 42.6632C36.6518 45.0109 36.827 47.4111 37.4227 49.864C37.4577 50.1443 37.4052 50.4071 37.265 50.6524C37.1249 50.8626 36.9146 51.0028 36.6343 51.0728C36.354 51.1079 36.0912 51.0553 35.8459 50.9152C35.6356 50.775 35.4955 50.5648 35.4254 50.2844C34.7947 47.6564 34.602 45.081 34.8472 42.5581C35.1276 40.0001 35.6532 37.6174 36.4241 35.4099C37.23 33.2023 38.2987 31.0999 39.6302 29.1026C40.9968 27.1053 42.4335 25.3358 43.9402 23.794C45.482 22.2172 47.1289 20.7981 48.8809 19.5366C49.9671 18.7657 51.0534 18.0649 52.1396 17.4342C52.4199 15.9625 52.6652 14.7011 52.8755 13.6499C52.9105 13.3695 53.0331 13.1593 53.2434 13.0191C53.4887 12.8439 53.7515 12.7914 54.0318 12.8614C54.3121 12.8965 54.5224 13.0367 54.6625 13.2819C54.8377 13.4922 54.9078 13.7375 54.8728 14.0178C54.7326 14.6485 54.5924 15.4019 54.4523 16.2779C57.8862 14.631 61.215 13.7375 64.4387 13.5973C67.6975 13.4221 70.5007 14.0353 72.8484 15.4369ZM76.6328 33.6228C77.1934 29.5231 77.0708 26.0891 76.2648 23.321C75.4589 20.5177 73.9697 18.4504 71.7972 17.1188C69.5897 15.8223 66.9091 15.3318 63.7555 15.6471C60.6018 15.9275 57.3431 16.9612 53.9792 18.7482C53.2784 22.3223 51.9118 29.1026 49.8795 39.0891C45.4995 60.6038 42.6437 75.3032 41.3122 83.1872C41.6275 83.2573 41.9604 83.3099 42.3108 83.3449C42.3459 83.3449 42.3809 83.3449 42.4159 83.3449C44.5884 83.3449 47.3741 82.1536 50.773 79.7708C54.207 77.4231 57.676 74.0067 61.18 69.5215C62.5816 67.7695 63.9482 65.8423 65.2797 63.7399C66.6112 61.6375 68.0654 59.062 69.6422 56.0135C71.219 52.965 72.6206 49.496 73.8471 45.6066C75.1085 41.7171 76.0371 37.7225 76.6328 33.6228ZM108.147 53.9111C108.428 53.9111 108.655 54.0162 108.831 54.2265C109.006 54.4367 109.076 54.682 109.041 54.9623C109.041 55.2426 108.936 55.4704 108.725 55.6456C104.1 59.6052 99.9653 63.3019 96.3211 66.7358C95.2699 73.2183 93.0273 79.9811 89.5934 87.0242C87.1055 92.07 84.022 96.1872 80.3428 99.3758C76.6986 102.565 73.5625 104.159 70.9345 104.159C70.8994 104.159 70.8644 104.159 70.8293 104.159C69.2175 104.124 68.1312 103.476 67.5706 102.214C66.8348 100.567 67.2728 98.167 68.8846 95.0133C70.4614 91.8948 73.0894 88.2155 76.7687 83.9757C82.235 77.7385 88.1042 71.659 94.3764 65.7372C95.0422 61.4623 94.867 58.6415 93.8508 57.275C93.4303 56.7143 92.8346 56.5041 92.0637 56.6443C90.3468 56.8895 88.5247 57.6429 86.5975 58.9043C86.3522 59.0445 86.1595 59.1496 86.0193 59.2197C85.9142 59.2898 85.7565 59.3774 85.5463 59.4825C85.336 59.5526 85.1433 59.5701 84.9681 59.5351C84.8279 59.5 84.6702 59.4124 84.495 59.2723C84.3198 59.0971 84.1972 58.9394 84.1271 58.7992C84.057 58.6591 84.057 58.4138 84.1271 58.0634C84.2322 57.713 84.3549 57.3801 84.495 57.0647C84.6352 56.7143 84.898 56.1186 85.2835 55.2777C85.6689 54.3666 85.9843 53.6133 86.2295 53.0176C86.7902 51.7561 87.2282 50.6173 87.5435 49.6012C87.894 48.585 88.1042 47.8141 88.1743 47.2885C88.2794 46.7279 88.332 46.2548 88.332 45.8694C88.332 45.4839 88.2969 45.2562 88.2268 45.1861C88.1918 45.081 88.1743 45.0109 88.1743 44.9758C88.0692 44.9408 87.8764 44.9758 87.5961 45.081C86.4748 45.5014 85.1608 46.6403 83.6541 48.4974C82.1824 50.3545 81.0961 52.4044 80.3953 54.647C80.3253 54.9273 80.1676 55.1375 79.9223 55.2777C79.677 55.3828 79.4142 55.4003 79.1339 55.3302C78.8536 55.2251 78.6433 55.0499 78.5032 54.8046C78.398 54.5594 78.3805 54.2966 78.4506 54.0162C79.2215 51.6335 80.518 49.2858 82.3401 46.9731C84.1972 44.6254 85.9317 43.2939 87.5435 42.9785C88.4896 42.8033 89.2255 43.0486 89.7511 43.7144C90.9074 45.1861 90.3468 48.55 88.0692 53.806C87.8239 54.4017 87.5085 55.155 87.1231 56.0661C87.088 56.1011 87.0705 56.1362 87.0705 56.1712C87.0355 56.2062 87.0179 56.2413 87.0179 56.2763C88.5597 55.4003 90.1365 54.8572 91.7484 54.647C93.3602 54.4017 94.6042 54.8922 95.4802 56.1186C96.5664 57.5553 96.9694 60.0432 96.6891 63.5822C99.8777 60.6739 103.452 57.5203 107.411 54.1214C107.622 53.9462 107.867 53.8761 108.147 53.9111ZM87.7538 86.1306C90.522 80.4891 92.5193 74.8126 93.7457 69.1011C88.3144 74.3221 83.1635 79.7358 78.2929 85.3422C74.7188 89.4419 72.231 92.8759 70.8293 95.6441C69.4277 98.4122 68.9547 100.322 69.4102 101.373C69.6205 101.864 70.111 102.109 70.8819 102.109C71.828 102.144 73.0018 101.811 74.4035 101.11C75.77 100.41 77.2242 99.4109 78.766 98.1144C80.3077 96.8529 81.8845 95.171 83.4964 93.0686C85.1083 90.9662 86.5274 88.6535 87.7538 86.1306ZM120.744 53.9111C121.024 53.841 121.287 53.8761 121.532 54.0162C121.778 54.1564 121.918 54.3666 121.953 54.647C122.023 54.9273 121.988 55.1901 121.848 55.4354C120.867 56.9771 119.675 58.589 118.274 60.2709C116.907 61.9178 115.348 63.407 113.596 64.7386C111.879 66.0701 110.425 66.7358 109.233 66.7358C108.813 66.7358 108.445 66.6658 108.13 66.5256C105.782 65.5094 105.537 61.3922 107.394 54.1739C107.464 53.8936 107.621 53.6833 107.867 53.5432C108.112 53.403 108.357 53.368 108.603 53.4381C108.883 53.5081 109.093 53.6658 109.233 53.9111C109.373 54.1564 109.409 54.4017 109.338 54.647C108.918 56.3289 108.603 57.8181 108.392 59.1146C108.217 60.376 108.13 61.3396 108.13 62.0054C108.165 62.6712 108.235 63.2318 108.34 63.6873C108.48 64.1078 108.585 64.3706 108.655 64.4757C108.76 64.5458 108.848 64.5984 108.918 64.6334C109.829 65.0189 111.476 64.1078 113.859 61.9003C116.276 59.6928 118.361 57.1699 120.113 54.3316C120.289 54.1214 120.499 53.9812 120.744 53.9111ZM109.128 49.8114C108.112 49.7413 107.797 49.3208 108.182 48.55C108.533 47.9192 108.988 47.4987 109.549 47.2885C110.425 47.0082 110.95 47.2359 111.126 47.9718C111.301 48.6726 111.038 49.1982 110.337 49.5486C109.987 49.7238 109.584 49.8114 109.128 49.8114ZM141.291 54.0688C141.572 53.9987 141.817 54.0338 142.027 54.1739C142.273 54.3141 142.43 54.5243 142.5 54.8046C142.57 55.085 142.535 55.3302 142.395 55.5405C140.433 58.7291 137.735 61.8127 134.301 64.7911C130.867 67.7345 127.959 69.2062 125.576 69.2062C125.296 69.2062 125.033 69.1887 124.788 69.1536C123.106 68.8383 122.072 67.6294 121.686 65.527C121.616 65.2116 121.669 64.9313 121.844 64.686C122.054 64.4057 122.475 64.0027 123.106 63.4771C124.402 62.3558 125.348 61.4097 125.944 60.6388C126.364 60.0782 126.715 59.5 126.995 58.9043C127.275 58.2736 127.451 57.7655 127.521 57.3801C127.591 56.9596 127.591 56.6267 127.521 56.3814C126.715 56.6968 125.664 57.8707 124.367 59.903C123.421 61.3747 122.457 63.2143 121.476 65.4218C120.53 67.6294 119.812 69.469 119.321 70.9407C118.831 72.4124 118.182 74.4272 117.376 76.9851L117.114 77.721C116.974 78.1765 116.658 78.4043 116.168 78.4043C116.098 78.4043 116.045 78.4043 116.01 78.4043C115.835 78.3692 115.695 78.2991 115.589 78.194C115.449 78.1239 115.344 78.0013 115.274 77.8261C115.204 77.6859 115.169 77.5282 115.169 77.353C115.169 76.5822 116.08 72.132 117.902 64.0027C119.689 55.8734 121.459 48.0594 123.211 40.5608C123.246 40.4907 123.263 40.4031 123.263 40.298C123.894 37.67 124.385 35.6201 124.735 34.1484C125.926 29.3128 127.293 25.1956 128.835 21.7967C130.411 18.3978 131.778 16.5757 132.934 16.3304C133.495 16.2253 133.951 16.418 134.301 16.9086C134.686 17.3641 134.739 18.3102 134.459 19.7469C134.213 21.1835 133.705 22.9355 132.934 25.0029C132.163 27.0703 131.112 29.4881 129.781 32.2562C128.449 34.9894 126.925 37.9152 125.208 41.0338C123.491 48.2871 121.774 55.8208 120.057 63.6348C120.898 61.7776 121.757 60.1658 122.633 58.7992C124.63 55.7157 126.347 54.2265 127.783 54.3316C128.519 54.4017 129.027 54.7871 129.308 55.4879C129.658 56.2238 129.658 57.2049 129.308 58.4313C128.957 59.6227 128.362 60.779 127.521 61.9003C126.855 62.7413 125.821 63.7749 124.42 65.0014C124.104 65.2817 123.894 65.4744 123.789 65.5795C124.034 66.4906 124.49 67.0162 125.155 67.1563C126.732 67.4367 129.168 66.2628 132.461 63.6348C135.79 61.0068 138.523 57.9583 140.661 54.4893C140.801 54.244 141.011 54.1038 141.291 54.0688ZM132.514 19.2738C130.622 22.042 128.835 26.6147 127.153 32.9921C130.201 26.7899 131.988 22.2172 132.514 19.2738ZM162.192 54.0688C162.472 53.9637 162.735 53.9812 162.98 54.1214C163.226 54.2265 163.401 54.4192 163.506 54.6995C163.611 54.9448 163.594 55.1901 163.453 55.4354C162.507 57.4677 161.439 59.5526 160.247 61.69C159.056 63.8275 157.742 65.9825 156.305 68.155C154.904 70.3625 153.502 72.1496 152.1 73.5161C150.699 74.9177 149.507 75.6186 148.526 75.6186C148.281 75.6186 148.053 75.566 147.843 75.4609C146.406 74.9002 145.951 72.7277 146.476 68.9434C146.967 65.4043 148.264 60.3936 150.366 53.9111C150.331 53.9111 150.296 53.9286 150.261 53.9637C150.261 53.9637 150.243 53.9637 150.208 53.9637C149.437 54.4893 148.789 54.8922 148.264 55.1726C147.773 55.4529 147.09 55.7682 146.214 56.1186C145.373 56.469 144.567 56.6267 143.796 56.5917C143.025 56.5567 142.307 56.3114 141.641 55.8558C140.309 54.9098 139.626 53.5957 139.591 51.9138C139.556 50.2319 140.187 48.3923 141.483 46.395C142.289 45.1335 143.253 44.0298 144.374 43.0837C145.53 42.1376 146.512 41.9273 147.317 42.4529C147.808 42.7333 148.088 43.1888 148.158 43.8195C148.264 44.4502 147.966 45.6766 147.265 47.4987C146.564 49.2858 145.39 51.6335 143.743 54.5418C144.83 54.682 146.617 53.9286 149.104 52.2817C149.56 51.9664 149.893 51.7561 150.103 51.651C150.348 51.5109 150.611 51.3707 150.892 51.2305C151.207 51.0904 151.47 51.0378 151.68 51.0728C151.89 51.1079 152.1 51.1955 152.311 51.3357C152.836 51.7561 152.924 52.492 152.573 53.5432C149.069 64.4057 147.685 70.9932 148.421 73.3059C148.491 73.4461 148.544 73.5512 148.579 73.6213C148.859 73.6563 149.28 73.4285 149.84 72.938C150.436 72.4474 151.154 71.6765 151.995 70.6253C152.871 69.5741 153.8 68.3127 154.781 66.841C155.797 65.3693 156.901 63.5647 158.092 61.4272C159.319 59.2898 160.493 57.0122 161.614 54.5944C161.754 54.3141 161.947 54.1389 162.192 54.0688ZM141.799 50.4947C141.483 51.7211 141.553 52.7022 142.009 53.4381C144.567 48.988 145.933 45.9745 146.109 44.3977C145.688 44.643 145.197 45.0459 144.637 45.6066C144.111 46.1672 143.551 46.9031 142.955 47.8141C142.394 48.6901 142.009 49.5836 141.799 50.4947ZM175.204 53.9111C175.484 53.841 175.747 53.8761 175.992 54.0162C176.237 54.1564 176.377 54.3666 176.412 54.647C176.483 54.9273 176.448 55.1901 176.307 55.4354C175.326 56.9771 174.135 58.589 172.733 60.2709C171.367 61.9178 169.807 63.407 168.055 64.7386C166.338 66.0701 164.884 66.7358 163.693 66.7358C163.272 66.7358 162.904 66.6658 162.589 66.5256C160.241 65.5094 159.996 61.3922 161.853 54.1739C161.923 53.8936 162.081 53.6833 162.326 53.5432C162.572 53.403 162.817 53.368 163.062 53.4381C163.342 53.5081 163.553 53.6658 163.693 53.9111C163.833 54.1564 163.868 54.4017 163.798 54.647C163.378 56.3289 163.062 57.8181 162.852 59.1146C162.677 60.376 162.589 61.3396 162.589 62.0054C162.624 62.6712 162.694 63.2318 162.799 63.6873C162.94 64.1078 163.045 64.3706 163.115 64.4757C163.22 64.5458 163.307 64.5984 163.378 64.6334C164.289 65.0189 165.935 64.1078 168.318 61.9003C170.736 59.6928 172.821 57.1699 174.573 54.3316C174.748 54.1214 174.958 53.9812 175.204 53.9111ZM163.588 49.8114C162.572 49.7413 162.256 49.3208 162.642 48.55C162.992 47.9192 163.448 47.4987 164.008 47.2885C164.884 47.0082 165.41 47.2359 165.585 47.9718C165.76 48.6726 165.497 49.1982 164.797 49.5486C164.446 49.7238 164.043 49.8114 163.588 49.8114Z" fill="white"/>
<path d="M263.583 15.4369C264.354 15.8924 265.055 16.4356 265.685 17.0663C266.351 17.697 266.999 18.538 267.63 19.5892C268.261 20.6053 268.734 21.7792 269.049 23.1107C269.365 24.4072 269.592 25.984 269.733 27.8412C269.873 29.6633 269.75 31.6781 269.365 33.8856C268.384 40.5433 266.526 47.0432 263.793 53.3855C261.095 59.7278 257.679 65.527 253.544 70.783C250.04 75.1981 246.431 78.7196 242.717 81.3476C239.037 84.0107 235.849 85.3422 233.151 85.3422C233.116 85.3422 233.08 85.3422 233.045 85.3422C232.59 85.3422 232.152 85.2897 231.731 85.1845C231.241 88.1279 230.926 90.4055 230.785 92.0174C230.855 91.8422 230.926 91.667 230.996 91.4918C231.101 91.2115 231.276 91.0187 231.521 90.9136C231.802 90.8085 232.064 90.8085 232.31 90.9136C232.59 91.0187 232.783 91.1939 232.888 91.4392C232.993 91.7196 232.993 91.9824 232.888 92.2276C232.292 93.6993 231.784 94.733 231.364 95.3287C230.978 95.9594 230.54 96.2748 230.049 96.2748C229.944 96.2748 229.822 96.2397 229.682 96.1697C229.296 96.0645 229.016 95.7842 228.841 95.3287C228.7 94.9082 228.683 93.822 228.788 92.07C228.928 90.3179 229.279 87.76 229.839 84.3961C228.403 83.415 227.562 81.8032 227.316 79.5606C227.281 79.3854 227.299 79.2102 227.369 79.035C227.439 78.8598 227.544 78.7196 227.684 78.6145C227.859 78.5094 228.035 78.4393 228.21 78.4043C228.35 78.4043 228.473 78.4218 228.578 78.4568C228.718 78.4919 228.841 78.5444 228.946 78.6145C229.051 78.7196 229.138 78.8247 229.209 78.9299C229.279 79.035 229.314 79.1576 229.314 79.2978C229.454 80.4541 229.752 81.3476 230.207 81.9784C231.609 73.849 234.43 59.4124 238.669 38.6686C240.491 29.6633 241.735 23.4786 242.401 20.1148C241.841 20.4652 241.315 20.8156 240.824 21.166C239.177 22.3574 237.636 23.6889 236.199 25.1606C234.762 26.5972 233.396 28.2616 232.099 30.1538C230.838 32.0109 229.839 33.9732 229.103 36.0406C228.368 38.0729 227.877 40.2804 227.632 42.6632C227.386 45.0109 227.562 47.4111 228.157 49.864C228.192 50.1443 228.14 50.4071 228 50.6524C227.859 50.8626 227.649 51.0028 227.369 51.0728C227.089 51.1079 226.826 51.0553 226.581 50.9152C226.37 50.775 226.23 50.5648 226.16 50.2844C225.529 47.6564 225.337 45.081 225.582 42.5581C225.862 40.0001 226.388 37.6174 227.159 35.4099C227.965 33.2023 229.033 31.0999 230.365 29.1026C231.731 27.1053 233.168 25.3358 234.675 23.794C236.217 22.2172 237.863 20.7981 239.615 19.5366C240.702 18.7657 241.788 18.0649 242.874 17.4342C243.155 15.9625 243.4 14.7011 243.61 13.6499C243.645 13.3695 243.768 13.1593 243.978 13.0191C244.223 12.8439 244.486 12.7914 244.766 12.8614C245.047 12.8965 245.257 13.0367 245.397 13.2819C245.572 13.4922 245.642 13.7375 245.607 14.0178C245.467 14.6485 245.327 15.4019 245.187 16.2779C248.621 14.631 251.95 13.7375 255.173 13.5973C258.432 13.4221 261.235 14.0353 263.583 15.4369ZM267.367 33.6228C267.928 29.5231 267.805 26.0891 266.999 23.321C266.194 20.5177 264.704 18.4504 262.532 17.1188C260.324 15.8223 257.644 15.3318 254.49 15.6471C251.336 15.9275 248.078 16.9612 244.714 18.7482C244.013 22.3223 242.646 29.1026 240.614 39.0891C236.234 60.6038 233.378 75.3032 232.047 83.1872C232.362 83.2573 232.695 83.3099 233.045 83.3449C233.08 83.3449 233.116 83.3449 233.151 83.3449C235.323 83.3449 238.109 82.1536 241.508 79.7708C244.942 77.4231 248.411 74.0067 251.915 69.5215C253.316 67.7695 254.683 65.8423 256.014 63.7399C257.346 61.6375 258.8 59.062 260.377 56.0135C261.954 52.965 263.355 49.496 264.582 45.6066C265.843 41.7171 266.772 37.7225 267.367 33.6228ZM284.691 54.1214C284.971 54.0513 285.216 54.1038 285.426 54.279C285.672 54.4192 285.812 54.6294 285.847 54.9098C285.882 55.1901 285.829 55.4354 285.689 55.6456C281.73 61.182 278.12 65.1065 274.862 67.4191C273.565 68.3302 272.286 68.7857 271.025 68.7857C270.044 68.7857 269.185 68.5229 268.449 67.9973C268.029 67.6819 267.661 67.2614 267.346 66.7358C266.995 66.2102 266.697 65.4744 266.452 64.5283C266.207 63.5822 266.172 62.3383 266.347 60.7965C266.487 59.2548 266.873 57.5027 267.503 55.5405V55.4879C268.484 52.2993 269.676 49.7764 271.077 47.9192C272.479 46.0621 273.74 45.116 274.862 45.081C275.668 45.0459 276.193 45.3963 276.439 46.1322C276.824 47.1483 276.368 48.585 275.072 50.4421C273.775 52.2993 271.866 54.2966 269.343 56.434C268.922 57.8006 268.625 59.062 268.449 60.2184C268.274 61.3747 268.204 62.3033 268.239 63.0041C268.309 63.6698 268.432 64.2655 268.607 64.7911C268.817 65.2817 268.993 65.6321 269.133 65.8423C269.308 66.0526 269.483 66.2278 269.658 66.3679C270.709 67.1388 272.059 66.9286 273.705 65.7372C276.789 63.5647 280.223 59.8154 284.007 54.4893C284.182 54.279 284.41 54.1564 284.691 54.1214ZM274.494 47.2885C273.267 48.0594 272.059 49.7238 270.867 52.2817C272.899 50.2494 274.108 48.585 274.494 47.2885ZM308.606 54.3316C308.887 54.2966 309.132 54.3666 309.342 54.5418C309.587 54.717 309.71 54.9448 309.71 55.2251C309.745 55.5054 309.675 55.7507 309.5 55.961C308.168 57.5027 306.644 58.624 304.927 59.3248C303.21 59.9906 301.581 60.1132 300.039 59.6928C298.252 59.2372 296.868 58.1335 295.887 56.3814C295.011 59.43 293.679 62.4259 291.892 65.3693C290.701 67.3666 289.492 69.0135 288.265 70.31C287.039 71.6415 285.935 72.4649 284.954 72.7803C284.604 72.8854 284.271 72.938 283.956 72.938C283.325 72.938 282.799 72.7277 282.379 72.3072C280.346 70.2399 281.363 63.1267 285.427 50.9677C285.497 50.7224 285.655 50.5472 285.9 50.4421C286.181 50.302 286.443 50.2844 286.689 50.3896C286.969 50.4596 287.162 50.6173 287.267 50.8626C287.407 51.1079 287.424 51.3707 287.319 51.651C286.303 54.7346 285.48 57.5027 284.849 59.9556C284.218 62.3733 283.798 64.2305 283.588 65.527C283.412 66.7884 283.342 67.8571 283.377 68.7331C283.412 69.6091 283.465 70.1523 283.535 70.3625C283.605 70.6078 283.693 70.7655 283.798 70.8356C283.903 70.9407 284.078 70.9407 284.323 70.8356C285.305 70.5202 286.531 69.4164 288.003 67.5243C289.474 65.6321 290.858 63.3019 292.155 60.5337C293.451 57.7305 294.275 55.085 294.625 52.5971C294.66 52.3518 294.765 52.1591 294.941 52.0189C295.151 51.8437 295.379 51.7386 295.624 51.7036C296.185 51.7036 296.517 51.9839 296.623 52.5445C297.183 55.4879 298.497 57.2224 300.565 57.748C301.721 58.0634 302.965 57.9407 304.296 57.3801C305.663 56.8195 306.872 55.9084 307.923 54.647C308.133 54.4367 308.361 54.3316 308.606 54.3316ZM321.744 53.9111C322.025 53.841 322.287 53.8761 322.533 54.0162C322.778 54.1564 322.918 54.3666 322.953 54.647C323.023 54.9273 322.988 55.1901 322.848 55.4354C321.867 56.9771 320.676 58.589 319.274 60.2709C317.907 61.9178 316.348 63.407 314.596 64.7386C312.879 66.0701 311.425 66.7358 310.234 66.7358C309.813 66.7358 309.445 66.6658 309.13 66.5256C306.782 65.5094 306.537 61.3922 308.394 54.1739C308.464 53.8936 308.622 53.6833 308.867 53.5432C309.112 53.403 309.358 53.368 309.603 53.4381C309.883 53.5081 310.093 53.6658 310.234 53.9111C310.374 54.1564 310.409 54.4017 310.339 54.647C309.918 56.3289 309.603 57.8181 309.393 59.1146C309.217 60.376 309.13 61.3396 309.13 62.0054C309.165 62.6712 309.235 63.2318 309.34 63.6873C309.48 64.1078 309.585 64.3706 309.655 64.4757C309.761 64.5458 309.848 64.5984 309.918 64.6334C310.829 65.0189 312.476 64.1078 314.859 61.9003C317.277 59.6928 319.362 57.1699 321.114 54.3316C321.289 54.1214 321.499 53.9812 321.744 53.9111ZM310.129 49.8114C309.112 49.7413 308.797 49.3208 309.182 48.55C309.533 47.9192 309.988 47.4987 310.549 47.2885C311.425 47.0082 311.951 47.2359 312.126 47.9718C312.301 48.6726 312.038 49.1982 311.337 49.5486C310.987 49.7238 310.584 49.8114 310.129 49.8114Z" fill="white"/>
<path d="M209.014 57.3275C209.4 57.9933 209.294 58.8693 208.699 59.9556C208.103 61.0068 207.069 62.1631 205.598 63.4245C204.687 64.1954 203.565 64.9663 202.234 65.7372C202.97 67.349 203.828 68.7857 204.809 70.0472C204.984 70.2574 205.055 70.5027 205.019 70.783C205.019 71.0633 204.897 71.2911 204.652 71.4663C204.476 71.6064 204.266 71.6765 204.021 71.6765C203.705 71.6765 203.443 71.5539 203.232 71.3086C202.181 69.942 201.253 68.3827 200.447 66.6307C198.765 67.4367 197.083 68.0674 195.401 68.5229C193.754 68.9784 192.212 69.1711 190.776 69.1011C189.339 69.066 188.305 68.7156 187.675 68.0499C185.887 66.0876 187.587 62.5836 192.773 57.5378C194.56 55.7858 196.154 54.0863 197.556 52.4394C197.521 49.9516 197.696 47.5688 198.081 45.2912C198.432 43.2589 199.08 41.647 200.026 40.4557C200.972 39.2292 201.936 38.546 202.917 38.4058C204.073 38.2306 204.914 38.6686 205.44 39.7198C206.001 40.8761 205.825 42.6106 204.914 44.9233C204.038 47.2359 202.269 49.9866 199.606 53.1753C199.711 57.1348 200.342 60.6914 201.498 63.845C202.549 63.2143 203.478 62.5661 204.284 61.9003C205.825 60.5688 206.771 59.4475 207.122 58.5364C207.087 58.5715 207.017 58.589 206.912 58.589C206.666 58.6941 206.421 58.6941 206.176 58.589C205.931 58.4488 205.755 58.2561 205.65 58.0108C205.545 57.7305 205.545 57.4677 205.65 57.2224C205.79 56.9771 206.001 56.8019 206.281 56.6968C207.612 56.2413 208.523 56.4515 209.014 57.3275ZM200.079 45.6591C199.869 46.9556 199.728 48.3572 199.658 49.864C200.604 48.6025 201.393 47.4111 202.024 46.2899C202.689 45.1335 203.127 44.2225 203.338 43.5567C203.548 42.8559 203.688 42.2252 203.758 41.6645C203.828 41.1039 203.776 40.7535 203.6 40.6133C203.53 40.4732 203.443 40.4031 203.338 40.4031C203.302 40.4031 203.267 40.4031 203.232 40.4031C202.672 40.5082 202.076 41.0338 201.445 41.9799C200.815 42.8909 200.359 44.1174 200.079 45.6591ZM189.199 66.6833C189.759 67.279 191.091 67.3841 193.193 66.9986C195.296 66.6132 197.468 65.8774 199.711 64.7911C198.66 61.9178 197.994 58.7642 197.714 55.3302C196.627 56.5216 195.453 57.748 194.192 59.0095C193.211 59.9205 192.37 60.7965 191.669 61.6375C190.968 62.4434 190.443 63.1267 190.092 63.6873C189.742 64.2129 189.462 64.7035 189.251 65.159C189.076 65.6146 189.006 65.9299 189.041 66.1051C189.076 66.3154 189.129 66.5081 189.199 66.6833Z" fill="white"/>
</svg>
